<svg width="163" height="48" viewBox="0 0 163 48" fill="none" xmlns="http://www.w3.org/2000/svg">
<rect x="0.5" width="162.5" height="48" rx="10" fill="black"/>
<rect width="24" height="24" transform="translate(34.25 12)" fill="black"/>
<path d="M55.5308 30.424C55.183 31.2275 54.7713 31.9672 54.2942 32.6472C53.644 33.5743 53.1116 34.216 52.7013 34.5724C52.0653 35.1573 51.3838 35.4568 50.6541 35.4739C50.1302 35.4739 49.4985 35.3248 48.763 35.0224C48.0252 34.7214 47.3472 34.5724 46.7272 34.5724C46.077 34.5724 45.3796 34.7214 44.6337 35.0224C43.8866 35.3248 43.2848 35.4824 42.8247 35.498C42.1249 35.5278 41.4274 35.2197 40.7312 34.5724C40.2868 34.1848 39.731 33.5204 39.0651 32.5791C38.3507 31.5739 37.7634 30.4084 37.3033 29.0795C36.8105 27.6442 36.5635 26.2543 36.5635 24.9087C36.5635 23.3673 36.8965 22.0379 37.5637 20.9238C38.088 20.029 38.7855 19.3231 39.6584 18.8049C40.5314 18.2867 41.4747 18.0227 42.4905 18.0058C43.0463 18.0058 43.7752 18.1777 44.681 18.5156C45.5842 18.8546 46.1641 19.0265 46.4184 19.0265C46.6085 19.0265 47.2528 18.8255 48.3449 18.4247C49.3778 18.0531 50.2495 17.8992 50.9636 17.9598C52.8987 18.1159 54.3524 18.8788 55.3193 20.253C53.5886 21.3016 52.7326 22.7703 52.7496 24.6544C52.7652 26.122 53.2976 27.3432 54.3439 28.3129C54.8181 28.7629 55.3477 29.1107 55.9368 29.3578C55.8091 29.7283 55.6742 30.0832 55.5308 30.424ZM51.0928 12.9601C51.0928 14.1104 50.6726 15.1844 49.8349 16.1785C48.8241 17.3602 47.6014 18.0431 46.2756 17.9354C46.2587 17.7974 46.2489 17.6521 46.2489 17.4995C46.2489 16.3953 46.7296 15.2135 47.5833 14.2472C48.0095 13.758 48.5515 13.3512 49.2088 13.0267C49.8647 12.7071 50.4852 12.5303 51.0687 12.5C51.0857 12.6538 51.0928 12.8076 51.0928 12.9601V12.9601Z" fill="white"/>
<path d="M76.0767 31H73.7472L78.9815 16.4545H81.517L86.7514 31H84.4219L80.3097 19.0966H80.196L76.0767 31ZM76.4673 25.304H84.0241V27.1506H76.4673V25.304ZM88.6815 35.0909V20.0909H90.7553V21.8594H90.9329C91.056 21.6321 91.2335 21.3693 91.4656 21.071C91.6976 20.7727 92.0195 20.5123 92.4315 20.2898C92.8434 20.0625 93.3879 19.9489 94.065 19.9489C94.9457 19.9489 95.7317 20.1714 96.4229 20.6165C97.1142 21.0616 97.6564 21.7031 98.0494 22.5412C98.4471 23.3793 98.646 24.3878 98.646 25.5668C98.646 26.7457 98.4495 27.7566 98.0565 28.5994C97.6635 29.4375 97.1237 30.0838 96.4371 30.5384C95.7506 30.9882 94.967 31.2131 94.0863 31.2131C93.4234 31.2131 92.8813 31.1018 92.4599 30.8793C92.0432 30.6567 91.7165 30.3963 91.4798 30.098C91.243 29.7997 91.0607 29.5346 90.9329 29.3026H90.805V35.0909H88.6815ZM90.7624 25.5455C90.7624 26.3125 90.8737 26.9848 91.0962 27.5625C91.3188 28.1402 91.6407 28.5923 92.0621 28.919C92.4835 29.241 92.9996 29.402 93.6104 29.402C94.2449 29.402 94.7752 29.2339 95.2013 28.8977C95.6275 28.5568 95.9495 28.0952 96.1673 27.5128C96.3898 26.9304 96.5011 26.2746 96.5011 25.5455C96.5011 24.8258 96.3922 24.1795 96.1744 23.6065C95.9613 23.0336 95.6393 22.5814 95.2085 22.25C94.7823 21.9186 94.2496 21.7528 93.6104 21.7528C92.9949 21.7528 92.4741 21.9115 92.0479 22.2287C91.6265 22.5459 91.3069 22.9886 91.0891 23.5568C90.8713 24.125 90.7624 24.7879 90.7624 25.5455ZM101.025 35.0909V20.0909H103.099V21.8594H103.277C103.4 21.6321 103.577 21.3693 103.809 21.071C104.041 20.7727 104.363 20.5123 104.775 20.2898C105.187 20.0625 105.732 19.9489 106.409 19.9489C107.289 19.9489 108.075 20.1714 108.767 20.6165C109.458 21.0616 110 21.7031 110.393 22.5412C110.791 23.3793 110.99 24.3878 110.99 25.5668C110.99 26.7457 110.793 27.7566 110.4 28.5994C110.007 29.4375 109.467 30.0838 108.781 30.5384C108.094 30.9882 107.311 31.2131 106.43 31.2131C105.767 31.2131 105.225 31.1018 104.804 30.8793C104.387 30.6567 104.06 30.3963 103.824 30.098C103.587 29.7997 103.404 29.5346 103.277 29.3026H103.149V35.0909H101.025ZM103.106 25.5455C103.106 26.3125 103.217 26.9848 103.44 27.5625C103.663 28.1402 103.984 28.5923 104.406 28.919C104.827 29.241 105.343 29.402 105.954 29.402C106.589 29.402 107.119 29.2339 107.545 28.8977C107.971 28.5568 108.293 28.0952 108.511 27.5128C108.734 26.9304 108.845 26.2746 108.845 25.5455C108.845 24.8258 108.736 24.1795 108.518 23.6065C108.305 23.0336 107.983 22.5814 107.552 22.25C107.126 21.9186 106.593 21.7528 105.954 21.7528C105.339 21.7528 104.818 21.9115 104.392 22.2287C103.97 22.5459 103.651 22.9886 103.433 23.5568C103.215 24.125 103.106 24.7879 103.106 25.5455ZM115.493 16.4545V31H113.369V16.4545H115.493ZM123.051 31.2202C121.976 31.2202 121.051 30.9905 120.274 30.5312C119.502 30.0672 118.906 29.4162 118.484 28.5781C118.068 27.7353 117.859 26.7481 117.859 25.6165C117.859 24.4991 118.068 23.5142 118.484 22.6619C118.906 21.8097 119.493 21.1444 120.246 20.6662C121.003 20.188 121.889 19.9489 122.902 19.9489C123.518 19.9489 124.114 20.0507 124.692 20.2543C125.269 20.4579 125.788 20.7775 126.247 21.2131C126.706 21.6487 127.069 22.2145 127.334 22.9105C127.599 23.6018 127.732 24.4422 127.732 25.4318V26.1847H119.06V24.5938H125.651C125.651 24.035 125.537 23.5402 125.31 23.1094C125.082 22.6738 124.763 22.3305 124.351 22.0795C123.944 21.8286 123.465 21.7031 122.916 21.7031C122.32 21.7031 121.799 21.8499 121.354 22.1435C120.913 22.4323 120.572 22.8111 120.331 23.2798C120.094 23.7438 119.976 24.2481 119.976 24.7926V26.0355C119.976 26.7647 120.104 27.3849 120.359 27.8963C120.62 28.4077 120.982 28.7983 121.446 29.0682C121.91 29.3333 122.452 29.4659 123.072 29.4659C123.475 29.4659 123.842 29.4091 124.173 29.2955C124.505 29.1771 124.791 29.0019 125.033 28.7699C125.274 28.5379 125.459 28.2514 125.587 27.9105L127.597 28.2727C127.436 28.8646 127.147 29.383 126.73 29.8281C126.318 30.2685 125.8 30.6117 125.175 30.858C124.554 31.0994 123.847 31.2202 123.051 31.2202Z" fill="white"/>
</svg>
