<svg width="24" height="21" viewBox="0 0 24 21" fill="none" xmlns="http://www.w3.org/2000/svg">
<path d="M20.92 8.73L20.91 8.714L16.527 2.426C15.686 1.22 14.306 0.5 12.836 0.5H8C6.142 0.5 4.45 1.667 3.792 3.405L1.662 9.023C0.665 9.641 0 10.744 0 12V14.5C0 15.603 0.897 16.5 2 16.5V17.5C2 19.154 3.346 20.5 5 20.5C6.654 20.5 8 19.154 8 17.5V16.5H16V17.5C16 19.154 17.346 20.5 19 20.5C20.654 20.5 22 19.154 22 17.5V16.5C23.103 16.5 24 15.603 24 14.5V13C24 11.015 22.708 9.326 20.92 8.73ZM15.707 2.999L19.542 8.501H11V1.5H12.836C13.98 1.5 15.053 2.06 15.707 2.999ZM4.728 3.76C5.24 2.408 6.555 1.501 8 1.501H10V8.501H3.5C3.299 8.501 3.103 8.518 2.911 8.551L4.727 3.761L4.728 3.76ZM7 17.501C7 18.604 6.103 19.501 5 19.501C3.897 19.501 3 18.604 3 17.501V16.501H7V17.501ZM21 17.501C21 18.604 20.103 19.501 19 19.501C17.897 19.501 17 18.604 17 17.501V16.501H21V17.501ZM23 14.501C23 15.052 22.552 15.501 22 15.501H2C1.448 15.501 1 15.052 1 14.501V12.001C1 10.623 2.121 9.501 3.5 9.501H19.5C21.43 9.501 23 11.071 23 13.001V14.501Z" fill="#1A2649"/>
</svg>
