<svg width="24" height="25" viewBox="0 0 24 25" fill="none" xmlns="http://www.w3.org/2000/svg">
<g clip-path="url(#clip0_12_1819)">
<path d="M21 18.5C20.938 18.5 20.88 18.515 20.819 18.518L17.233 3.926C16.738 1.908 14.941 0.5 12.864 0.5H11.5C11.224 0.5 11 0.724 11 1C11 1.276 11.224 1.5 11.5 1.5H12.864C14.479 1.5 15.877 2.596 16.262 4.165L18.509 13.31L15.313 17.216C14.645 18.032 13.658 18.5 12.604 18.5H0.5C0.224 18.5 0 18.724 0 19C0 19.276 0.224 19.5 0.5 19.5H1.78C1.3 20.032 1 20.729 1 21.5C1 23.154 2.346 24.5 4 24.5C5.654 24.5 7 23.154 7 21.5C7 20.729 6.699 20.032 6.22 19.5H12.605C13.96 19.5 15.229 18.898 16.087 17.849L18.808 14.523L19.842 18.733C18.761 19.187 17.999 20.256 17.999 21.5C17.999 23.154 19.345 24.5 20.999 24.5C22.653 24.5 23.999 23.154 23.999 21.5C23.999 19.846 22.654 18.5 21 18.5ZM6 21.5C6 22.603 5.103 23.5 4 23.5C2.897 23.5 2 22.603 2 21.5C2 20.397 2.897 19.5 4 19.5C5.103 19.5 6 20.397 6 21.5ZM21 23.5C19.897 23.5 19 22.603 19 21.5C19 20.397 19.897 19.5 21 19.5C22.103 19.5 23 20.397 23 21.5C23 22.603 22.103 23.5 21 23.5Z" fill="#1A2649"/>
</g>
<defs>
<clipPath id="clip0_12_1819">
<rect width="24" height="24" fill="white" transform="translate(0 0.5)"/>
</clipPath>
</defs>
</svg>
