<svg width="24" height="25" viewBox="0 0 24 25" fill="none" xmlns="http://www.w3.org/2000/svg">
<path d="M19.5 2.5H18V1C18 0.724 17.776 0.5 17.5 0.5C17.224 0.5 17 0.724 17 1V2.5H7V1C7 0.724 6.776 0.5 6.5 0.5C6.224 0.5 6 0.724 6 1V2.5H4.5C2.019 2.5 0 4.519 0 7V20C0 22.481 2.019 24.5 4.5 24.5H19.5C21.981 24.5 24 22.481 24 20V7C24 4.519 21.981 2.5 19.5 2.5ZM4.5 3.5H19.5C21.43 3.5 23 5.07 23 7V8.5H1V7C1 5.07 2.57 3.5 4.5 3.5ZM19.5 23.5H4.5C2.57 23.5 1 21.93 1 20V9.5H23V20C23 21.93 21.43 23.5 19.5 23.5ZM15.77 14.512H13.826L13.306 12.517C13.152 11.93 12.619 11.511 11.991 11.499C11.381 11.511 10.848 11.929 10.695 12.517L10.175 14.511H8.231C7.454 14.511 6.973 15.134 6.973 15.712C6.973 16.247 7.297 16.758 7.817 17.047L9.066 17.741L8.493 19.303C8.277 19.894 8.469 20.546 8.972 20.925C9.224 21.115 9.525 21.209 9.826 21.209C10.133 21.209 10.439 21.11 10.694 20.914L12.002 19.903L13.309 20.914C13.813 21.304 14.521 21.308 15.031 20.925C15.534 20.546 15.726 19.894 15.51 19.303L14.937 17.741L16.185 17.047C16.706 16.758 17.03 16.246 17.03 15.712C17.03 15.134 16.549 14.511 15.772 14.511L15.77 14.512ZM15.697 16.174L13.701 17.284L14.568 19.648C14.631 19.82 14.573 20.017 14.427 20.127C14.277 20.239 14.068 20.238 13.919 20.124L12 18.64L10.081 20.124C9.932 20.239 9.723 20.241 9.573 20.127C9.427 20.017 9.369 19.82 9.431 19.648L10.299 17.283L8.303 16.173C8.139 16.082 7.973 15.903 7.973 15.712C7.973 15.658 8.034 15.511 8.231 15.511H10.947L11.662 12.769C11.703 12.613 11.846 12.501 11.991 12.498C12.155 12.501 12.298 12.612 12.338 12.768L13.053 15.51H15.769C15.966 15.51 16.027 15.657 16.027 15.711C16.027 15.903 15.861 16.081 15.696 16.172L15.697 16.174Z" fill="#1A2649"/>
</svg>
