<svg width="24" height="24" viewBox="0 0 24 24" fill="none" xmlns="http://www.w3.org/2000/svg">
<path fill-rule="evenodd" clip-rule="evenodd" d="M23.29 12.2615C23.29 11.446 23.2168 10.6619 23.0809 9.90918H12.25V14.3576H18.4391C18.1725 15.7951 17.3623 17.013 16.1443 17.8285V20.714H19.8609C22.0355 18.7119 23.29 15.7637 23.29 12.2615Z" fill="#4285F4"/>
<path fill-rule="evenodd" clip-rule="evenodd" d="M12.25 23.4998C15.355 23.4998 17.9581 22.47 19.8609 20.7137L16.1443 17.8282C15.1145 18.5182 13.7972 18.9259 12.25 18.9259C9.25474 18.9259 6.71951 16.903 5.81519 14.1848H1.97314V17.1644C3.86542 20.9228 7.75451 23.4998 12.25 23.4998Z" fill="#34A853"/>
<path fill-rule="evenodd" clip-rule="evenodd" d="M5.81523 14.185C5.58523 13.495 5.45455 12.7579 5.45455 12C5.45455 11.242 5.58523 10.505 5.81523 9.81499V6.83545H1.97318C1.19432 8.38795 0.75 10.1443 0.75 12C0.75 13.8557 1.19432 15.612 1.97318 17.1645L5.81523 14.185Z" fill="#FBBC05"/>
<path fill-rule="evenodd" clip-rule="evenodd" d="M12.25 5.07386C13.9384 5.07386 15.4543 5.65409 16.6461 6.79364L19.9445 3.49523C17.9529 1.63955 15.3497 0.5 12.25 0.5C7.75451 0.5 3.86542 3.07705 1.97314 6.83545L5.81519 9.815C6.71951 7.09682 9.25474 5.07386 12.25 5.07386Z" fill="#EA4335"/>
</svg>
