<svg width="24" height="25" viewBox="0 0 24 25" fill="none" xmlns="http://www.w3.org/2000/svg">
<g clip-path="url(#clip0_12_1841)">
<path d="M10.5 15.5H9.5C9.224 15.5 9 15.276 9 15C9 14.724 9.224 14.5 9.5 14.5H10.5C10.776 14.5 11 14.724 11 15C11 15.276 10.776 15.5 10.5 15.5ZM15 15C15 14.724 14.776 14.5 14.5 14.5H13.5C13.224 14.5 13 14.724 13 15C13 15.276 13.224 15.5 13.5 15.5H14.5C14.776 15.5 15 15.276 15 15ZM11 19C11 18.724 10.776 18.5 10.5 18.5H9.5C9.224 18.5 9 18.724 9 19C9 19.276 9.224 19.5 9.5 19.5H10.5C10.776 19.5 11 19.276 11 19ZM15 19C15 18.724 14.776 18.5 14.5 18.5H13.5C13.224 18.5 13 18.724 13 19C13 19.276 13.224 19.5 13.5 19.5H14.5C14.776 19.5 15 19.276 15 19ZM11 7C11 6.724 10.776 6.5 10.5 6.5H9.5C9.224 6.5 9 6.724 9 7C9 7.276 9.224 7.5 9.5 7.5H10.5C10.776 7.5 11 7.276 11 7ZM15 7C15 6.724 14.776 6.5 14.5 6.5H13.5C13.224 6.5 13 6.724 13 7C13 7.276 13.224 7.5 13.5 7.5H14.5C14.776 7.5 15 7.276 15 7ZM11 11C11 10.724 10.776 10.5 10.5 10.5H9.5C9.224 10.5 9 10.724 9 11C9 11.276 9.224 11.5 9.5 11.5H10.5C10.776 11.5 11 11.276 11 11ZM15 11C15 10.724 14.776 10.5 14.5 10.5H13.5C13.224 10.5 13 10.724 13 11C13 11.276 13.224 11.5 13.5 11.5H14.5C14.776 11.5 15 11.276 15 11ZM24 19.942V10C24 7.519 21.981 5.5 19.5 5.5H19V5.058C19 2.545 16.956 0.5 14.442 0.5H9.5C7.019 0.5 5 2.519 5 5V9.5H4.5C2.019 9.5 0 11.519 0 14V20C0 22.481 2.019 24.5 4.5 24.5H19.442C21.955 24.5 24 22.455 24 19.942ZM5.5 10.5C5.776 10.5 6 10.276 6 10V5C6 3.07 7.57 1.5 9.5 1.5H14.442C16.404 1.5 18 3.096 18 5.058V6C18 6.276 18.224 6.5 18.5 6.5H19.5C21.43 6.5 23 8.07 23 10V19.942C23 21.904 21.404 23.5 19.442 23.5H4.5C2.57 23.5 1 21.93 1 20V14C1 12.07 2.57 10.5 4.5 10.5H5.5ZM20 15C20 14.724 19.776 14.5 19.5 14.5H18.5C18.224 14.5 18 14.724 18 15C18 15.276 18.224 15.5 18.5 15.5H19.5C19.776 15.5 20 15.276 20 15ZM20 19C20 18.724 19.776 18.5 19.5 18.5H18.5C18.224 18.5 18 18.724 18 19C18 19.276 18.224 19.5 18.5 19.5H19.5C19.776 19.5 20 19.276 20 19ZM6 15C6 14.724 5.776 14.5 5.5 14.5H4.5C4.224 14.5 4 14.724 4 15C4 15.276 4.224 15.5 4.5 15.5H5.5C5.776 15.5 6 15.276 6 15ZM6 19C6 18.724 5.776 18.5 5.5 18.5H4.5C4.224 18.5 4 18.724 4 19C4 19.276 4.224 19.5 4.5 19.5H5.5C5.776 19.5 6 19.276 6 19ZM20 11C20 10.724 19.776 10.5 19.5 10.5H18.5C18.224 10.5 18 10.724 18 11C18 11.276 18.224 11.5 18.5 11.5H19.5C19.776 11.5 20 11.276 20 11Z" fill="white"/>
</g>
<defs>
<clipPath id="clip0_12_1841">
<rect width="24" height="24" fill="white" transform="translate(0 0.5)"/>
</clipPath>
</defs>
</svg>
