<svg width="22" height="22" viewBox="0 0 22 22" fill="none" xmlns="http://www.w3.org/2000/svg">
<rect width="22" height="22" fill="#1E1E1E"/> -->
<g id="Frame 237574">
<rect x="-92" y="-96" width="624" height="435" rx="16" fill="white"/>
<g id="ship (1) 1">
<path id="Vector" d="M21.462 20.126C21.25 19.947 20.936 19.975 20.758 20.188C19.976 21.117 18.684 21.221 17.787 20.501C18.3 19.946 18.719 19.403 19.037 18.883C20.297 16.81 20.531 14.487 20.541 14.389C20.552 14.277 20.523 14.163 20.462 14.069C19.742 12.961 18.905 12.029 18.01 11.245V5.75602C18.01 5.59702 17.935 5.44802 17.807 5.35402C17.744 5.30702 16.671 4.53502 14.527 4.06202V3.51102C14.527 1.57402 12.948 -0.000976562 10.994 -0.000976562C9.05401 -0.000976562 7.47401 1.57402 7.47401 3.51102V4.06302C5.33401 4.53602 4.25801 5.30602 4.19501 5.35302C4.06701 5.44702 3.99101 5.59702 3.99101 5.75602V11.243C3.09601 12.027 2.25901 12.959 1.53901 14.067C1.47701 14.162 1.44901 14.275 1.46001 14.387C1.47001 14.485 1.70401 16.808 2.96501 18.882C3.28101 19.399 3.70001 19.942 4.21401 20.499C3.31701 21.219 2.02501 21.116 1.24301 20.186C1.06501 19.974 0.75001 19.945 0.53901 20.124C0.32701 20.302 0.30001 20.617 0.47701 20.828C1.62501 22.196 3.62801 22.349 4.91601 21.22C6.07001 22.233 7.81701 22.229 8.97201 21.22C10.126 22.23 11.874 22.23 13.029 21.22C14.183 22.23 15.93 22.233 17.085 21.22C17.662 21.726 18.366 21.998 19.113 21.998C20.034 21.998 20.89 21.583 21.524 20.828C21.702 20.617 21.674 20.302 21.462 20.124V20.126ZM8.47401 3.51202C8.47401 2.12702 9.60401 1.00002 11.007 1.00002C12.397 1.00002 13.527 2.12702 13.527 3.51202V3.87902C12.784 3.76902 11.943 3.69902 11.001 3.69902C10.059 3.69902 9.21801 3.76902 8.47501 3.87902V3.51102L8.47401 3.51202ZM4.99101 6.03302C5.60601 5.67602 7.59801 4.70002 11.001 4.70002C14.404 4.70002 16.4 5.67702 17.011 6.03202V10.443C15.029 8.99402 12.879 8.17202 11.13 7.70702C11.044 7.68502 10.958 7.68502 10.872 7.70702C9.12301 8.17202 6.97301 8.99402 4.99101 10.443V6.03302ZM9.35501 20.188C9.16601 19.961 8.77901 19.961 8.58901 20.188C7.70901 21.235 6.18101 21.235 5.29901 20.188C5.28101 20.167 5.26101 20.148 5.24001 20.13C5.23601 20.125 5.23201 20.12 5.22701 20.115C4.62701 19.502 4.15401 18.912 3.81901 18.362C2.86501 16.794 2.55301 15.009 2.47601 14.461C4.64501 11.228 7.91701 9.63502 10.5 8.85202V20.911C10.074 20.806 9.67301 20.565 9.35501 20.188ZM13.412 20.188C13.223 19.961 12.836 19.961 12.646 20.188C12.328 20.566 11.926 20.806 11.5 20.911V8.85202C14.084 9.63402 17.356 11.228 19.524 14.462C19.448 15.009 19.139 16.787 18.182 18.362C17.842 18.92 17.363 19.514 16.757 20.131C16.756 20.132 16.754 20.134 16.753 20.135C16.734 20.151 16.716 20.168 16.7 20.187C15.818 21.234 14.29 21.234 13.41 20.187L13.412 20.188Z" fill="#1A2649"/>
</g>
</g>
</svg>
