<svg width="25" height="24" viewBox="0 0 25 24" fill="none" xmlns="http://www.w3.org/2000/svg">
<rect width="24" height="24" transform="translate(0.25)" fill="black"/>
<path d="M21.5306 18.424C21.1827 19.2275 20.771 19.9672 20.294 20.6472C19.6438 21.5743 19.1114 22.216 18.7011 22.5724C18.065 23.1573 17.3836 23.4568 16.6539 23.4739C16.13 23.4739 15.4982 23.3248 14.7628 23.0224C14.025 22.7214 13.3469 22.5724 12.7269 22.5724C12.0767 22.5724 11.3793 22.7214 10.6334 23.0224C9.88638 23.3248 9.28456 23.4824 8.82444 23.498C8.12466 23.5278 7.42716 23.2197 6.73093 22.5724C6.28656 22.1848 5.73075 21.5204 5.0649 20.5791C4.35051 19.5739 3.76317 18.4084 3.30304 17.0795C2.81026 15.6442 2.56323 14.2543 2.56323 12.9087C2.56323 11.3673 2.8963 10.0379 3.56342 8.92385C4.08772 8.029 4.78522 7.32312 5.6582 6.80493C6.53118 6.28674 7.47443 6.02267 8.49024 6.00578C9.04605 6.00578 9.77493 6.1777 10.6807 6.51559C11.5839 6.85462 12.1639 7.02655 12.4181 7.02655C12.6082 7.02655 13.2525 6.82552 14.3447 6.42473C15.3775 6.05305 16.2492 5.89916 16.9633 5.95978C18.8984 6.11595 20.3522 6.87876 21.319 8.25303C19.5884 9.30163 18.7323 10.7703 18.7493 12.6544C18.765 14.122 19.2974 15.3432 20.3437 16.3129C20.8179 16.7629 21.3474 17.1107 21.9366 17.3578C21.8088 17.7283 21.6739 18.0832 21.5306 18.424ZM17.0925 0.960131C17.0925 2.11039 16.6723 3.18439 15.8347 4.17847C14.8238 5.36023 13.6012 6.04311 12.2753 5.93536C12.2584 5.79736 12.2486 5.65213 12.2486 5.49951C12.2486 4.39526 12.7293 3.21349 13.583 2.24724C14.0092 1.75801 14.5513 1.35122 15.2086 1.02671C15.8645 0.707053 16.4849 0.530273 17.0684 0.5C17.0854 0.653772 17.0925 0.807554 17.0925 0.960116V0.960131Z" fill="white"/>
</svg>
