<svg width="20" height="24" viewBox="0 0 20 24" fill="none"
    xmlns="http://www.w3.org/2000/svg">
    <path d="M19.5308 18.424C19.183 19.2275 18.7713 19.9672 18.2942 20.6472C17.644 21.5743 17.1116 22.216 16.7013 22.5724C16.0653 23.1573 15.3838 23.4568 14.6541 23.4739C14.1302 23.4739 13.4985 23.3248 12.763 23.0224C12.0252 22.7214 11.3472 22.5724 10.7272 22.5724C10.077 22.5724 9.37959 22.7214 8.63368 23.0224C7.88662 23.3248 7.28481 23.4824 6.82468 23.498C6.12491 23.5278 5.4274 23.2197 4.73118 22.5724C4.28681 22.1848 3.73099 21.5204 3.06515 20.5791C2.35075 19.5739 1.76342 18.4084 1.30329 17.0795C0.810506 15.6442 0.563477 14.2543 0.563477 12.9087C0.563477 11.3673 0.896541 10.0379 1.56366 8.92385C2.08796 8.029 2.78546 7.32312 3.65844 6.80493C4.53142 6.28674 5.47468 6.02267 6.49048 6.00578C7.0463 6.00578 7.77518 6.1777 8.68095 6.51559C9.58417 6.85462 10.1641 7.02655 10.4184 7.02655C10.6085 7.02655 11.2528 6.82552 12.3449 6.42473C13.3778 6.05305 14.2495 5.89916 14.9636 5.95978C16.8987 6.11595 18.3524 6.87876 19.3193 8.25303C17.5886 9.30163 16.7326 10.7703 16.7496 12.6544C16.7652 14.122 17.2976 15.3432 18.3439 16.3129C18.8181 16.7629 19.3477 17.1107 19.9368 17.3578C19.8091 17.7283 19.6742 18.0832 19.5308 18.424ZM15.0928 0.960131C15.0928 2.11039 14.6726 3.18439 13.8349 4.17847C12.8241 5.36023 11.6014 6.04311 10.2756 5.93536C10.2587 5.79736 10.2489 5.65213 10.2489 5.49951C10.2489 4.39526 10.7296 3.21349 11.5833 2.24724C12.0095 1.75801 12.5515 1.35122 13.2088 1.02671C13.8647 0.707053 14.4852 0.530273 15.0687 0.5C15.0857 0.653772 15.0928 0.807554 15.0928 0.960116V0.960131Z" fill="white" />
</svg>