<svg width="169" height="56" viewBox="0 0 169 56" fill="none" xmlns="http://www.w3.org/2000/svg">
<g filter="url(#filter0_dd_137_3268)">
<rect x="3" y="3" width="162.5" height="48" rx="10" fill="white"/>
<rect width="24" height="24" transform="translate(30.25 15)" fill="white"/>
<path fill-rule="evenodd" clip-rule="evenodd" d="M53.29 27.2615C53.29 26.446 53.2168 25.6619 53.0809 24.9092H42.25V29.3576H48.4391C48.1725 30.7951 47.3623 32.013 46.1443 32.8285V35.714H49.8609C52.0355 33.7119 53.29 30.7637 53.29 27.2615Z" fill="#4285F4"/>
<path fill-rule="evenodd" clip-rule="evenodd" d="M42.25 38.4998C45.355 38.4998 47.9581 37.47 49.8609 35.7137L46.1443 32.8282C45.1145 33.5182 43.7972 33.9259 42.25 33.9259C39.2547 33.9259 36.7195 31.903 35.8152 29.1848H31.9731V32.1644C33.8654 35.9228 37.7545 38.4998 42.25 38.4998Z" fill="#34A853"/>
<path fill-rule="evenodd" clip-rule="evenodd" d="M35.8152 29.185C35.5852 28.495 35.4545 27.7579 35.4545 27C35.4545 26.242 35.5852 25.505 35.8152 24.815V21.8354H31.9732C31.1943 23.3879 30.75 25.1443 30.75 27C30.75 28.8557 31.1943 30.612 31.9732 32.1645L35.8152 29.185Z" fill="#FBBC05"/>
<path fill-rule="evenodd" clip-rule="evenodd" d="M42.25 20.0739C43.9384 20.0739 45.4543 20.6541 46.6461 21.7936L49.9445 18.4952C47.9529 16.6395 45.3497 15.5 42.25 15.5C37.7545 15.5 33.8654 18.077 31.9731 21.8355L35.8152 24.815C36.7195 22.0968 39.2547 20.0739 42.25 20.0739Z" fill="#EA4335"/>
<path d="M80.6918 24.0497C80.5545 23.6188 80.3698 23.233 80.1378 22.892C79.9105 22.5464 79.6383 22.2528 79.321 22.0114C79.0038 21.7652 78.6416 21.5781 78.2344 21.4503C77.8319 21.3224 77.3892 21.2585 76.9062 21.2585C76.0871 21.2585 75.3485 21.4692 74.6903 21.8906C74.0322 22.312 73.5114 22.9299 73.1278 23.7443C72.7491 24.554 72.5597 25.5459 72.5597 26.7202C72.5597 27.8991 72.7514 28.8958 73.1349 29.7102C73.5185 30.5246 74.044 31.1425 74.7116 31.5639C75.3793 31.9853 76.1392 32.196 76.9915 32.196C77.7822 32.196 78.4711 32.035 79.0582 31.7131C79.6501 31.3911 80.107 30.9366 80.429 30.3494C80.7557 29.7576 80.919 29.0616 80.919 28.2614L81.4872 28.3679H77.3253V26.5568H83.0426V28.2116C83.0426 29.4332 82.7822 30.4938 82.2614 31.3935C81.7453 32.2884 81.0303 32.9796 80.1165 33.4673C79.2074 33.955 78.1657 34.1989 76.9915 34.1989C75.6752 34.1989 74.5199 33.8958 73.5256 33.2898C72.536 32.6837 71.7642 31.8243 71.2102 30.7116C70.6563 29.5942 70.3793 28.2685 70.3793 26.7344C70.3793 25.5743 70.5402 24.5327 70.8622 23.6094C71.1842 22.6861 71.6364 21.9025 72.2188 21.2585C72.8059 20.6098 73.4948 20.1151 74.2855 19.7741C75.081 19.4285 75.9498 19.2557 76.892 19.2557C77.678 19.2557 78.4096 19.3717 79.0866 19.6037C79.7685 19.8357 80.3745 20.1648 80.9048 20.5909C81.4399 21.017 81.8826 21.5237 82.233 22.1108C82.5833 22.6932 82.8201 23.3395 82.9432 24.0497H80.6918ZM90.2532 34.2202C89.2305 34.2202 88.3379 33.9858 87.5756 33.517C86.8133 33.0483 86.2215 32.3925 85.8001 31.5497C85.3787 30.7069 85.168 29.7221 85.168 28.5952C85.168 27.4635 85.3787 26.474 85.8001 25.6264C86.2215 24.7789 86.8133 24.1207 87.5756 23.652C88.3379 23.1832 89.2305 22.9489 90.2532 22.9489C91.2759 22.9489 92.1684 23.1832 92.9308 23.652C93.6931 24.1207 94.2849 24.7789 94.7063 25.6264C95.1277 26.474 95.3384 27.4635 95.3384 28.5952C95.3384 29.7221 95.1277 30.7069 94.7063 31.5497C94.2849 32.3925 93.6931 33.0483 92.9308 33.517C92.1684 33.9858 91.2759 34.2202 90.2532 34.2202ZM90.2603 32.4375C90.9232 32.4375 91.4724 32.2623 91.908 31.9119C92.3436 31.5616 92.6656 31.0952 92.8739 30.5128C93.087 29.9304 93.1935 29.2888 93.1935 28.5881C93.1935 27.892 93.087 27.2528 92.8739 26.6705C92.6656 26.0833 92.3436 25.6122 91.908 25.2571C91.4724 24.902 90.9232 24.7244 90.2603 24.7244C89.5927 24.7244 89.0387 24.902 88.5984 25.2571C88.1628 25.6122 87.8384 26.0833 87.6254 26.6705C87.417 27.2528 87.3129 27.892 87.3129 28.5881C87.3129 29.2888 87.417 29.9304 87.6254 30.5128C87.8384 31.0952 88.1628 31.5616 88.5984 31.9119C89.0387 32.2623 89.5927 32.4375 90.2603 32.4375ZM102.304 34.2202C101.281 34.2202 100.389 33.9858 99.6264 33.517C98.8641 33.0483 98.2723 32.3925 97.8509 31.5497C97.4295 30.7069 97.2188 29.7221 97.2188 28.5952C97.2188 27.4635 97.4295 26.474 97.8509 25.6264C98.2723 24.7789 98.8641 24.1207 99.6264 23.652C100.389 23.1832 101.281 22.9489 102.304 22.9489C103.327 22.9489 104.219 23.1832 104.982 23.652C105.744 24.1207 106.336 24.7789 106.757 25.6264C107.179 26.474 107.389 27.4635 107.389 28.5952C107.389 29.7221 107.179 30.7069 106.757 31.5497C106.336 32.3925 105.744 33.0483 104.982 33.517C104.219 33.9858 103.327 34.2202 102.304 34.2202ZM102.311 32.4375C102.974 32.4375 103.523 32.2623 103.959 31.9119C104.394 31.5616 104.716 31.0952 104.925 30.5128C105.138 29.9304 105.244 29.2888 105.244 28.5881C105.244 27.892 105.138 27.2528 104.925 26.6705C104.716 26.0833 104.394 25.6122 103.959 25.2571C103.523 24.902 102.974 24.7244 102.311 24.7244C101.643 24.7244 101.089 24.902 100.649 25.2571C100.214 25.6122 99.8892 26.0833 99.6761 26.6705C99.4678 27.2528 99.3636 27.892 99.3636 28.5881C99.3636 29.2888 99.4678 29.9304 99.6761 30.5128C99.8892 31.0952 100.214 31.5616 100.649 31.9119C101.089 32.2623 101.643 32.4375 102.311 32.4375ZM114.333 38.3182C113.467 38.3182 112.721 38.2045 112.096 37.9773C111.476 37.75 110.969 37.4493 110.576 37.0753C110.183 36.7012 109.89 36.2917 109.696 35.8466L111.521 35.0938C111.649 35.3021 111.819 35.5223 112.032 35.7543C112.25 35.991 112.544 36.1922 112.913 36.358C113.287 36.5237 113.768 36.6065 114.355 36.6065C115.16 36.6065 115.825 36.41 116.35 36.017C116.876 35.6288 117.139 35.0085 117.139 34.1562V32.0114H117.004C116.876 32.2434 116.691 32.5014 116.45 32.7855C116.213 33.0696 115.886 33.3158 115.47 33.5241C115.053 33.7325 114.511 33.8366 113.843 33.8366C112.982 33.8366 112.205 33.6354 111.514 33.233C110.827 32.8258 110.283 32.2268 109.88 31.4361C109.483 30.6406 109.284 29.6629 109.284 28.5028C109.284 27.3428 109.48 26.3485 109.873 25.5199C110.271 24.6913 110.815 24.0568 111.507 23.6165C112.198 23.1714 112.982 22.9489 113.858 22.9489C114.535 22.9489 115.082 23.0625 115.498 23.2898C115.915 23.5123 116.239 23.7727 116.471 24.071C116.708 24.3693 116.89 24.6321 117.018 24.8594H117.174V23.0909H119.255V34.2415C119.255 35.179 119.038 35.9484 118.602 36.5497C118.166 37.151 117.577 37.5961 116.833 37.8849C116.095 38.1738 115.261 38.3182 114.333 38.3182ZM114.312 32.0753C114.923 32.0753 115.439 31.9332 115.86 31.6491C116.287 31.3603 116.609 30.9484 116.826 30.4134C117.049 29.8736 117.16 29.2273 117.16 28.4744C117.16 27.7405 117.051 27.0942 116.833 26.5355C116.616 25.9768 116.296 25.5412 115.875 25.2287C115.453 24.9115 114.932 24.7528 114.312 24.7528C113.673 24.7528 113.14 24.9186 112.714 25.25C112.288 25.5767 111.966 26.0218 111.748 26.5852C111.535 27.1487 111.429 27.7784 111.429 28.4744C111.429 29.1894 111.538 29.8168 111.755 30.3565C111.973 30.8963 112.295 31.3177 112.721 31.6207C113.152 31.9238 113.682 32.0753 114.312 32.0753ZM124.227 19.4545V34H122.103V19.4545H124.227ZM131.786 34.2202C130.711 34.2202 129.785 33.9905 129.009 33.5312C128.237 33.0672 127.64 32.4162 127.219 31.5781C126.802 30.7353 126.594 29.7481 126.594 28.6165C126.594 27.4991 126.802 26.5142 127.219 25.6619C127.64 24.8097 128.227 24.1444 128.98 23.6662C129.738 23.188 130.623 22.9489 131.636 22.9489C132.252 22.9489 132.848 23.0507 133.426 23.2543C134.004 23.4579 134.522 23.7775 134.982 24.2131C135.441 24.6487 135.803 25.2145 136.068 25.9105C136.333 26.6018 136.466 27.4422 136.466 28.4318V29.1847H127.794V27.5938H134.385C134.385 27.035 134.271 26.5402 134.044 26.1094C133.817 25.6738 133.497 25.3305 133.085 25.0795C132.678 24.8286 132.2 24.7031 131.651 24.7031C131.054 24.7031 130.533 24.8499 130.088 25.1435C129.648 25.4323 129.307 25.8111 129.065 26.2798C128.829 26.7438 128.71 27.2481 128.71 27.7926V29.0355C128.71 29.7647 128.838 30.3849 129.094 30.8963C129.354 31.4077 129.716 31.7983 130.18 32.0682C130.644 32.3333 131.187 32.4659 131.807 32.4659C132.209 32.4659 132.576 32.4091 132.908 32.2955C133.239 32.1771 133.526 32.0019 133.767 31.7699C134.009 31.5379 134.193 31.2514 134.321 30.9105L136.331 31.2727C136.17 31.8646 135.881 32.383 135.464 32.8281C135.053 33.2685 134.534 33.6117 133.909 33.858C133.289 34.0994 132.581 34.2202 131.786 34.2202Z" fill="black" fill-opacity="0.54"/>
</g>
<defs>
<filter id="filter0_dd_137_3268" x="0" y="0" width="168.5" height="56" filterUnits="userSpaceOnUse" color-interpolation-filters="sRGB">
<feFlood flood-opacity="0" result="BackgroundImageFix"/>
<feColorMatrix in="SourceAlpha" type="matrix" values="0 0 0 0 0 0 0 0 0 0 0 0 0 0 0 0 0 0 127 0" result="hardAlpha"/>
<feOffset dy="2"/>
<feGaussianBlur stdDeviation="1.5"/>
<feColorMatrix type="matrix" values="0 0 0 0 0 0 0 0 0 0 0 0 0 0 0 0 0 0 0.168 0"/>
<feBlend mode="normal" in2="BackgroundImageFix" result="effect1_dropShadow_137_3268"/>
<feColorMatrix in="SourceAlpha" type="matrix" values="0 0 0 0 0 0 0 0 0 0 0 0 0 0 0 0 0 0 127 0" result="hardAlpha"/>
<feOffset/>
<feGaussianBlur stdDeviation="1.5"/>
<feColorMatrix type="matrix" values="0 0 0 0 0 0 0 0 0 0 0 0 0 0 0 0 0 0 0.084 0"/>
<feBlend mode="normal" in2="effect1_dropShadow_137_3268" result="effect2_dropShadow_137_3268"/>
<feBlend mode="normal" in="SourceGraphic" in2="effect2_dropShadow_137_3268" result="shape"/>
</filter>
</defs>
</svg>
