<svg width="26" height="21" viewBox="0 0 26 21" fill="none" xmlns="http://www.w3.org/2000/svg">
<path d="M20.0996 3.4918C19.1753 2.55752 18.0753 1.816 16.8632 1.3101C15.6511 0.804207 14.351 0.543971 13.0379 0.544434H12.9958C10.3538 0.549935 7.82087 1.60083 5.94872 3.46828C4.07656 5.33572 3.01677 7.86846 3.00015 10.515C2.99301 11.8295 3.24644 13.1324 3.74575 14.3481C4.24506 15.5638 4.98032 16.6681 5.9089 17.5971C6.83318 18.5313 7.93316 19.2729 9.14525 19.7788C10.3573 20.2847 11.6575 20.5449 12.9706 20.5444H12.9958C15.6426 20.54 18.1802 19.4868 20.0545 17.6149C21.9289 15.7429 22.9877 13.2041 22.9999 10.5529C23.0045 9.24257 22.7506 7.94428 22.2529 6.73254C21.7552 5.52081 21.0234 4.41948 20.0996 3.4918ZM13.0211 20.035H12.9958C11.7557 20.0373 10.5274 19.7937 9.3818 19.3182C8.23616 18.8427 7.19584 18.1447 6.32084 17.2644C5.43241 16.3836 4.72833 15.334 4.24981 14.1773C3.77128 13.0205 3.52792 11.7797 3.53398 10.5276C3.54616 8.01882 4.54734 5.61647 6.31951 3.84366C8.09168 2.07086 10.4913 1.07118 12.9958 1.06233C14.2388 1.05775 15.4702 1.30027 16.6189 1.77584C17.7676 2.25142 18.8107 2.95059 19.6877 3.83285C20.5759 4.71364 21.2796 5.76325 21.7574 6.9201C22.2353 8.07696 22.4776 9.31775 22.4703 10.5697C22.4604 13.077 21.4616 15.4787 19.6917 17.2516C17.9218 19.0245 15.5241 20.025 13.0211 20.035Z" fill="#1A2649" stroke="#1A2649" stroke-width="0.25"/>
<path d="M4.91484 19.4409C4.85095 19.5077 4.79132 19.5522 4.73168 19.5433C4.65758 19.5362 4.58895 19.4995 4.54001 19.4409C4.262 19.1594 3.99894 18.8621 3.75203 18.5505C1.94961 16.2576 0.975655 13.3755 1.00046 10.4081C1.02247 7.21468 2.21625 4.15192 4.33556 1.85157C4.41371 1.75509 4.50233 1.66843 4.59964 1.59336C4.62395 1.57382 4.65181 1.55966 4.68153 1.55174C4.71125 1.54383 4.7422 1.54232 4.77249 1.54732C4.80279 1.55232 4.83178 1.56372 4.85772 1.58082C4.88366 1.59792 4.90599 1.62036 4.92336 1.64679C4.96537 1.68896 4.99117 1.74575 4.99587 1.80644C5.00058 1.86713 4.98388 1.92752 4.94891 1.97622C4.91039 2.03698 4.86458 2.09233 4.81261 2.14094C3.12909 3.90596 2.03559 6.19179 1.69474 8.65848C1.40582 10.4897 1.52993 12.3661 2.05716 14.1383C2.5844 15.9105 3.50021 17.5296 4.73168 18.8666L4.81261 18.9557L4.91058 19.058C5.0554 19.2406 5.00003 19.3519 4.91484 19.4409Z" fill="#1A2649" stroke="#1A2649" stroke-width="0.25"/>
<path d="M24.999 10.7564C24.9651 13.963 23.7371 17.0307 21.5737 19.3128C21.3382 19.567 21.2483 19.5848 21.1028 19.4957C21.0742 19.4765 21.0502 19.451 21.0324 19.4209C21.0146 19.3908 21.0036 19.3569 21 19.3218C21.0001 19.2595 21.0128 19.198 21.0371 19.1412C21.0615 19.0844 21.0969 19.0335 21.1413 18.9918C21.8658 18.2245 22.4879 17.3591 22.9909 16.4191C24.1401 14.3091 24.6407 11.8831 24.4253 9.46776C24.2071 6.7121 23.0712 4.12243 21.2141 2.14637C21.0471 1.96356 20.9872 1.8833 21.0214 1.74062C21.0291 1.69573 21.0483 1.65382 21.0769 1.6193C21.1056 1.58478 21.1426 1.55892 21.1841 1.54443H21.2441C21.3008 1.54871 21.3561 1.56471 21.4068 1.5915C21.4576 1.6183 21.5027 1.65535 21.5395 1.70049C22.3754 2.58596 23.0783 3.59759 23.6246 4.70128C24.5528 6.57167 25.0248 8.65115 24.999 10.7564Z" fill="#1A2649" stroke="#1A2649" stroke-width="0.25"/>
<path d="M12.9917 2.54444C11.9425 2.54331 10.9035 2.75047 9.93485 3.15391C8.96621 3.55735 8.08715 4.14907 7.34855 4.89481C6.60222 5.63483 6.01027 6.51591 5.60709 7.48685C5.20392 8.45778 4.99757 9.49923 5.00002 10.5507C5.00057 11.6038 5.2099 12.6463 5.61588 13.6178C6.02186 14.5894 6.61643 15.4707 7.36515 16.2107C8.10301 16.9516 8.97997 17.5392 9.94558 17.9397C10.9112 18.3403 11.9464 18.5458 12.9917 18.5444H13.0165C14.0692 18.5373 15.11 18.3214 16.0788 17.9091C17.0506 17.5039 17.9332 16.9113 18.6763 16.165C19.418 15.4246 20.0054 14.5441 20.4043 13.5746C20.8032 12.6051 21.0056 11.5659 20.9999 10.5174C20.9835 8.40075 20.1332 6.37603 18.6337 4.88316C17.1343 3.39028 15.1067 2.54984 12.9917 2.54444ZM18.2572 15.8328C17.5664 16.5259 16.7457 17.0757 15.8421 17.4505C14.9385 17.8254 13.9698 18.0179 12.9917 18.017H12.9543C10.9756 18.0072 9.0817 17.2119 7.68838 15.8058C6.29507 14.3997 5.51622 12.4977 5.52284 10.5174C5.52483 9.53448 5.72129 8.56165 6.10087 7.65506C6.48046 6.74848 7.03566 5.92608 7.73444 5.23533C9.1499 3.83956 11.0585 3.05911 13.0456 3.06351C15.0221 3.07779 16.9124 3.87558 18.3023 5.2821C19.6921 6.68862 20.4682 8.58915 20.4605 10.5673C20.461 11.5495 20.2664 12.5221 19.8879 13.4284C19.5104 14.3289 18.9591 15.146 18.2655 15.8328H18.2572Z" fill="#1A2649" stroke="#1A2649" stroke-width="0.25"/>
<path d="M9.91578 11.7193L8.9974 9.0795C8.9573 8.94608 8.9212 8.84125 8.89313 8.76501C8.87017 8.69456 8.84058 8.62742 8.8049 8.56488C8.77358 8.50868 8.73082 8.46278 8.68058 8.43146C8.61805 8.39558 8.5495 8.37695 8.48006 8.37695C8.41062 8.37695 8.34208 8.39558 8.27954 8.43146C8.22931 8.46278 8.18655 8.50868 8.15522 8.56488C8.11326 8.64123 8.07831 8.7227 8.05095 8.8079L7.08044 11.7432C7.04434 11.8432 7.02028 11.9242 7.00424 11.9814C6.99859 12.0272 6.99859 12.0738 7.00424 12.1196C7.00483 12.1528 7.01161 12.1854 7.0241 12.215C7.03658 12.2447 7.05445 12.2707 7.07643 12.2911C7.09724 12.3183 7.12263 12.34 7.15096 12.3548C7.17929 12.3696 7.20992 12.3771 7.24085 12.3769C7.34512 12.3769 7.3732 12.3293 7.38122 12.315C7.44635 12.195 7.49761 12.0652 7.53361 11.929L7.7221 11.3286H9.26209L9.45058 11.9147C9.45058 11.9814 9.4987 12.0529 9.52677 12.1339C9.54633 12.1891 9.57051 12.2417 9.59896 12.2911C9.61744 12.3157 9.6391 12.3366 9.66313 12.3531C9.69349 12.3688 9.72626 12.3769 9.75938 12.3769C9.79155 12.3776 9.82349 12.3703 9.85317 12.3555C9.88285 12.3408 9.90964 12.3188 9.93182 12.2911C9.95277 12.2689 9.96963 12.2418 9.98136 12.2114C9.99309 12.1811 9.99944 12.1482 10 12.1148C9.9912 11.9782 9.96271 11.8445 9.91578 11.7193ZM7.84241 10.9426L8.4961 8.78407L9.15782 10.9426H7.84241Z" fill="#1A2649" stroke="#1A2649" stroke-width="0.25"/>
<path d="M13.8137 10.3643L13.5338 10.2695L13.8002 10.1349C13.9535 10.0735 14.0855 9.96064 14.1778 9.81217C14.2701 9.66369 14.3181 9.48703 14.3149 9.30695C14.3168 9.19966 14.2999 9.09297 14.2652 8.99274C14.2323 8.90265 14.1848 8.81986 14.1253 8.74836C14.0628 8.66847 13.9897 8.59952 13.9085 8.54387C13.8085 8.47859 13.6982 8.43461 13.5835 8.4142C13.4341 8.38867 13.2831 8.37699 13.132 8.37929H11.8633C11.7616 8.36765 11.6597 8.39981 11.5789 8.46906C11.5268 8.55061 11.4998 8.64856 11.5021 8.74836V11.9653C11.4918 12.0784 11.5191 12.1919 11.5789 12.2845C11.6593 12.3547 11.7615 12.3869 11.8633 12.3742H13.0507C13.2258 12.3767 13.4009 12.3651 13.5744 12.3393C13.703 12.3228 13.829 12.2876 13.9492 12.2346C14.1154 12.1572 14.2558 12.0248 14.351 11.8555C14.4489 11.682 14.5006 11.4815 14.5 11.277C14.5001 11.0603 14.4316 10.8503 14.3062 10.6836C14.1809 10.5169 14.0066 10.4039 13.8137 10.3643ZM12.062 8.74836H12.8114C13.0449 8.73383 13.2786 8.77289 13.4977 8.86307C13.5889 8.91101 13.6644 8.98906 13.7138 9.08644C13.7631 9.18383 13.7838 9.29574 13.7731 9.4067C13.7754 9.52662 13.7455 9.64461 13.6873 9.74585C13.6251 9.8827 13.5163 9.98672 13.3848 10.0351C13.2252 10.0871 13.0591 10.1107 12.8927 10.1049H12.062V8.74836ZM13.0191 11.9752H12.062V10.479H12.992C13.2279 10.4621 13.4631 10.521 13.6693 10.6486C13.7573 10.712 13.8278 10.8009 13.8732 10.9055C13.9186 11.0102 13.937 11.1266 13.9266 11.2421C13.9266 11.5762 13.7686 11.9852 13.0191 11.9852V11.9752Z" fill="#1A2649" stroke="#1A2649" stroke-width="0.25"/>
<path d="M18.8915 10.732C18.8269 10.6088 18.7348 10.5025 18.6226 10.4216C18.4865 10.3252 18.3371 10.2495 18.1792 10.1971C18 10.135 17.7924 10.073 17.5707 10.0204C17.3491 9.96789 17.25 9.93924 17.1698 9.91058C17.0806 9.88508 16.995 9.84817 16.9151 9.80074C16.8268 9.75869 16.7505 9.6946 16.6934 9.61448C16.6348 9.53254 16.6034 9.43388 16.6038 9.33271C16.605 9.24452 16.628 9.15804 16.6709 9.08125C16.7138 9.00447 16.775 8.93984 16.8491 8.89334C17.0198 8.77653 17.2235 8.7195 17.4292 8.73097C17.6318 8.71502 17.8335 8.77072 18 8.88857C18.1269 8.99855 18.2284 9.13552 18.2971 9.28973C18.3331 9.3628 18.3792 9.43033 18.4339 9.49031C18.4806 9.52105 18.5365 9.53408 18.5918 9.52708C18.647 9.52009 18.698 9.49353 18.7358 9.45211C18.7817 9.39938 18.8069 9.33139 18.8066 9.26108C18.8043 9.16295 18.7801 9.06661 18.7358 8.97931C18.6792 8.86858 18.6005 8.771 18.5047 8.69276C18.3812 8.59258 18.2405 8.51647 18.0896 8.4683C17.8951 8.40286 17.6908 8.37216 17.4858 8.37756C17.2235 8.37264 16.9627 8.41802 16.717 8.51128C16.5284 8.58353 16.3646 8.70961 16.2453 8.87424C16.137 9.03071 16.0808 9.21809 16.0849 9.40913C16.0777 9.59398 16.1289 9.77634 16.2312 9.92968C16.3386 10.0713 16.4798 10.1831 16.6415 10.2544C16.8692 10.3569 17.1062 10.4369 17.3491 10.4932C17.5295 10.5295 17.7076 10.5774 17.8821 10.6365C18.0189 10.6812 18.1434 10.7581 18.2453 10.861C18.297 10.9164 18.3374 10.9816 18.3641 11.053C18.3908 11.1243 18.4033 11.2002 18.4009 11.2765C18.4014 11.38 18.3768 11.4822 18.329 11.5738C18.2813 11.6654 18.212 11.7437 18.1273 11.8018C17.9323 11.9379 17.699 12.0066 17.4623 11.9976C17.2994 12.0025 17.1377 11.9681 16.9906 11.8973C16.8721 11.8395 16.7699 11.7525 16.6934 11.6442C16.6214 11.5332 16.5613 11.4147 16.5142 11.2908C16.4878 11.2145 16.446 11.1445 16.3915 11.0854C16.3525 11.0506 16.302 11.0318 16.25 11.0329C16.2169 11.0314 16.1837 11.037 16.1529 11.0493C16.122 11.0617 16.094 11.0805 16.0708 11.1045C16.0479 11.1276 16.0298 11.1552 16.0176 11.1856C16.0055 11.2159 15.9995 11.2485 16 11.2812C16.0051 11.4523 16.0592 11.6182 16.1557 11.7588C16.258 11.9245 16.3989 12.0623 16.5661 12.16C16.8556 12.3164 17.1816 12.3906 17.5094 12.3749C17.7894 12.3822 18.0677 12.3285 18.3254 12.2173C18.5295 12.1283 18.7046 11.9826 18.8301 11.797C18.9401 11.6212 18.9989 11.4177 18.9999 11.2096C19.0016 11.0439 18.9645 10.8803 18.8915 10.732Z" fill="#1A2649" stroke="#1A2649" stroke-width="0.25"/>
</svg>
