<svg width="15" height="21" viewBox="0 0 15 21" fill="none" xmlns="http://www.w3.org/2000/svg">
<path d="M7.49999 4.7111C8.64916 4.7111 9.58333 3.7761 9.58333 2.62777C9.58333 1.47943 8.64916 0.544434 7.49999 0.544434C6.35083 0.544434 5.41666 1.47943 5.41666 2.62777C5.41666 3.7761 6.35083 4.7111 7.49999 4.7111ZM7.49999 1.37777C8.18916 1.37777 8.74999 1.9386 8.74999 2.62777C8.74999 3.31693 8.18916 3.87777 7.49999 3.87777C6.81083 3.87777 6.24999 3.31693 6.24999 2.62777C6.24999 1.9386 6.81083 1.37777 7.49999 1.37777ZM14.8333 15.6278C14.7483 15.5644 13.4917 14.6378 11.6667 13.9128V9.7111C11.6667 9.23443 11.5867 8.76693 11.43 8.32193C11.3517 8.10527 11.115 7.99193 10.8975 8.0686C10.6808 8.14527 10.5675 8.38277 10.6433 8.60027C10.7692 8.95527 10.8333 9.32943 10.8333 9.7111V13.6094C9.82166 13.2803 8.68499 13.0444 7.49999 13.0444C5.77083 13.0444 4.14166 13.5461 2.85999 14.1069L14.4617 2.5061C14.6242 2.3436 14.6242 2.07943 14.4617 1.91693C14.2992 1.75443 14.035 1.75443 13.8725 1.91693L9.64166 6.14777C8.99499 5.7586 8.26166 5.54443 7.50083 5.54443C5.20333 5.54443 3.33416 7.4136 3.33416 9.7111V12.4553L0.122493 15.6669C-0.0325065 15.8219 -0.04084 16.0694 0.102493 16.2344C0.184993 16.3286 0.300827 16.3778 0.417493 16.3778C0.50416 16.3778 0.592494 16.3503 0.667494 16.2944C0.699994 16.2703 3.93083 13.8778 7.50083 13.8778C11.0708 13.8778 14.3017 16.2703 14.3342 16.2944C14.52 16.4328 14.78 16.3944 14.9175 16.2103C15.055 16.0261 15.0175 15.7661 14.8333 15.6278ZM4.16666 9.7111C4.16666 7.87277 5.66166 6.37777 7.49999 6.37777C8.03916 6.37777 8.55999 6.51193 9.03166 6.75693L4.16666 11.6219V9.7111ZM5.83333 15.9611V20.1278C5.83333 20.3578 5.64666 20.5444 5.41666 20.5444C5.18666 20.5444 4.99999 20.3578 4.99999 20.1278V15.9611C4.99999 15.7311 5.18666 15.5444 5.41666 15.5444C5.64666 15.5444 5.83333 15.7311 5.83333 15.9611ZM9.99999 15.9611V20.1278C9.99999 20.3578 9.81333 20.5444 9.58333 20.5444C9.35333 20.5444 9.16666 20.3578 9.16666 20.1278V15.9611C9.16666 15.7311 9.35333 15.5444 9.58333 15.5444C9.81333 15.5444 9.99999 15.7311 9.99999 15.9611Z" fill="#1A2649"/>
</svg>
