<svg width="12" height="13" viewBox="0 0 12 13" fill="none" xmlns="http://www.w3.org/2000/svg">
<path d="M11.651 6.93139C11.4035 6.65289 11.0675 6.49989 10.7045 6.49989H0.5V2.51939C0.5 2.09839 0.6495 1.67939 0.955 1.39039C1.522 0.853887 2.317 0.905887 2.826 1.33039L2.5135 3.12489C2.4745 3.34539 2.52 3.57139 2.641 3.76039C2.775 3.96889 2.991 4.11339 3.2345 4.15739C3.2865 4.16739 3.3395 4.17139 3.392 4.17139C3.584 4.17139 3.7735 4.10939 3.929 3.99339L5.6425 2.70839C6.0145 2.42889 6.11 1.90339 5.8525 1.50139C5.696 1.25789 5.429 1.10439 5.14 1.09189L3.213 1.00539C2.506 0.357387 1.3335 0.272887 0.5415 1.10389C0.178 1.48589 0 2.00989 0 2.53689V6.59189C0 6.69889 0.006 6.80439 0.0185 6.91039C0.0645 7.30589 0.1815 8.30639 0.1815 8.30639C0.3205 9.48639 0.9145 10.5039 1.763 11.1704C1.761 11.1769 1.507 12.2009 1.507 12.2009C1.474 12.3354 1.556 12.4704 1.6895 12.5034C1.7095 12.5084 1.73 12.5109 1.7495 12.5109C1.862 12.5109 1.964 12.4349 1.992 12.3209L2.2025 11.4704C2.7765 11.8084 3.435 11.9994 4.1305 11.9994H8.0075C8.6555 11.9994 9.271 11.8334 9.816 11.5374L10.007 12.3094C10.0355 12.4234 10.1375 12.4994 10.2495 12.4994C10.269 12.4994 10.2895 12.4969 10.3095 12.4919C10.4435 12.4589 10.5255 12.3234 10.492 12.1894L10.261 11.2559C11.17 10.5929 11.8115 9.53839 11.9565 8.30589L11.9885 8.02739C12.036 7.62589 11.9125 7.22589 11.6495 6.93089L11.651 6.93139ZM5.438 1.78089C5.5485 1.95389 5.5065 2.18539 5.343 2.30789L3.6295 3.59289C3.5405 3.65889 3.4315 3.68339 3.3235 3.66589C3.215 3.64589 3.1225 3.58389 3.0625 3.49089C3.0095 3.40789 2.9895 3.30839 3.0065 3.21089L3.303 1.50989L5.1185 1.59039C5.246 1.59639 5.3635 1.66389 5.439 1.78089H5.438ZM11.493 7.96989L11.461 8.24839C11.2425 10.1024 9.7585 11.5004 8.008 11.5004H4.131C2.3805 11.5004 0.896 10.1024 0.678 8.24839L0.5315 7.00039H10.705C10.923 7.00039 11.1265 7.09439 11.278 7.26389C11.446 7.45289 11.5245 7.71039 11.494 7.96989H11.493Z" fill="black"/>
</svg>
