<svg width="16" height="21" viewBox="0 0 16 21" fill="none" xmlns="http://www.w3.org/2000/svg">
<path d="M8 10.4229C10.7575 10.4229 13 8.18035 13 5.42285C13 2.66535 10.7575 0.422852 8 0.422852C5.2425 0.422852 3 2.66535 3 5.42285C3 8.18035 5.2425 10.4229 8 10.4229ZM8 1.25618C10.2975 1.25618 12.1667 3.12535 12.1667 5.42285C12.1667 7.72035 10.2975 9.58952 8 9.58952C5.7025 9.58952 3.83333 7.72035 3.83333 5.42285C3.83333 3.12535 5.7025 1.25618 8 1.25618ZM15.5 19.5895V20.0062C15.5 20.2362 15.3133 20.4229 15.0833 20.4229C14.8533 20.4229 14.6667 20.2362 14.6667 20.0062V19.5895C14.6667 16.6412 12.7425 14.1337 10.0842 13.257L8.86583 15.0845L10.0708 19.9062C10.1258 20.1295 9.97333 20.4237 9.66667 20.4237C9.47917 20.4237 9.30917 20.2979 9.2625 20.1079L8.0125 15.1079C7.98417 14.9937 8.005 14.8737 8.07 14.7762L9.22917 13.0379C8.83083 12.9637 8.42 12.9237 8 12.9237C7.58 12.9237 7.17 12.9629 6.77167 13.0379L7.93 14.7762C7.995 14.8737 8.01583 14.9945 7.9875 15.1079L6.7375 20.1079C6.69 20.2979 6.52083 20.4237 6.33417 20.4237C6.0525 20.4237 5.87333 20.1287 5.93 19.9062L7.135 15.0845L5.91667 13.257C3.25833 14.1337 1.33333 16.6412 1.33333 19.5895V20.0062C1.33333 20.2362 1.14667 20.4229 0.916667 20.4229C0.686667 20.4229 0.5 20.2362 0.5 20.0062V19.5895C0.5 15.4545 3.865 12.0895 8 12.0895C12.135 12.0895 15.5 15.4545 15.5 19.5895Z" fill="#1A2649"/>
</svg>
