<svg width="20" height="18" viewBox="0 0 20 18" fill="none" xmlns="http://www.w3.org/2000/svg">
<path d="M17.9167 6.21126H17.5V5.7946C17.5 4.62793 16.5833 3.71126 15.4167 3.71126H12.5V1.21126H16.25C16.5 1.21126 16.6667 1.0446 16.6667 0.794596C16.6667 0.544596 16.5 0.37793 16.25 0.37793H7.91667C7.66667 0.37793 7.5 0.544596 7.5 0.794596C7.5 1.0446 7.66667 1.21126 7.91667 1.21126H11.6667V3.71126H8.66667C7.83333 3.71126 7 4.12793 6.41667 4.7946L5.25 6.21126H5C4.08333 6.21126 3.33333 6.96126 3.33333 7.87793V10.3779H0.833333V6.62793C0.833333 6.37793 0.666667 6.21126 0.416667 6.21126C0.166667 6.21126 0 6.37793 0 6.62793V14.9613C0 15.2113 0.166667 15.3779 0.416667 15.3779C0.666667 15.3779 0.833333 15.2113 0.833333 14.9613V11.2113H3.33333V13.9613C3.33333 14.7113 3.66667 15.4613 4.16667 16.0446L5.25 17.0446C5.83333 17.6279 6.5 17.8779 7.33333 17.8779H15.8333C16.75 17.8779 17.5 17.1279 17.5 16.2113H17.9167C19.0833 16.2113 20 15.2946 20 14.1279V8.2946C20 7.12793 19.0833 6.21126 17.9167 6.21126ZM19.1667 14.1279C19.1667 14.7946 18.5833 15.3779 17.9167 15.3779H17.0833C16.8333 15.3779 16.6667 15.5446 16.6667 15.7946V16.2113C16.6667 16.7113 16.3333 17.0446 15.8333 17.0446H7.25C6.66667 17.0446 6.16667 16.7946 5.75 16.4613L4.75 15.3779C4.41667 15.0446 4.16667 14.4613 4.16667 13.9613V7.87793C4.16667 7.37793 4.5 7.0446 5 7.0446H5.41667C5.5 7.0446 5.66667 6.96126 5.75 6.87793L7.08333 5.2946C7.5 4.7946 8.08333 4.5446 8.66667 4.5446H15.4167C16.0833 4.5446 16.6667 5.12793 16.6667 5.7946V6.62793C16.6667 6.87793 16.8333 7.0446 17.0833 7.0446H17.9167C18.5833 7.0446 19.1667 7.62793 19.1667 8.2946V14.1279Z" fill="#1A2649"/>
</svg>
