<svg width="79" height="25" viewBox="0 0 79 25" fill="none" xmlns="http://www.w3.org/2000/svg">
<rect x="78.875" y="24.7529" width="78.75" height="23.75" rx="3.875" transform="rotate(-180 78.875 24.7529)" stroke="#ECECED" stroke-width="0.25"/>
<mask id="path-2-inside-1_34_825" fill="white">
<path d="M79 24.8779L55 24.8779L55 0.877928L79 0.87793L79 24.8779Z"/>
</mask>
<path d="M55.25 24.8779L55.25 0.877928L54.75 0.877928L54.75 24.8779L55.25 24.8779Z" fill="#ECECED" mask="url(#path-2-inside-1_34_825)"/>
<path d="M62 13.8779L66 13.8779L66 17.8779C66 18.1431 66.1054 18.3975 66.2929 18.585C66.4804 18.7726 66.7348 18.8779 67 18.8779C67.2652 18.8779 67.5196 18.7726 67.7071 18.585C67.8946 18.3975 68 18.1431 68 17.8779L68 13.8779L72 13.8779C72.2652 13.8779 72.5196 13.7726 72.7071 13.585C72.8946 13.3975 73 13.1431 73 12.8779C73 12.6127 72.8946 12.3584 72.7071 12.1708C72.5196 11.9833 72.2652 11.8779 72 11.8779L68 11.8779L68 7.87793C68 7.61271 67.8946 7.35836 67.7071 7.17082C67.5196 6.98329 67.2652 6.87793 67 6.87793C66.7348 6.87793 66.4804 6.98329 66.2929 7.17082C66.1054 7.35836 66 7.61271 66 7.87793L66 11.8779L62 11.8779C61.7348 11.8779 61.4804 11.9833 61.2929 12.1708C61.1054 12.3584 61 12.6127 61 12.8779C61 13.1431 61.1054 13.3975 61.2929 13.585C61.4804 13.7726 61.7348 13.8779 62 13.8779Z" fill="#1A2649"/>
<path d="M39.7666 10.2539L37.8226 11.5139L37.3066 10.6619L39.8506 8.95793H40.9186V16.8779H39.7666V10.2539Z" fill="#333333"/>
<mask id="path-6-inside-2_34_825" fill="white">
<path d="M24 24.8779L0 24.8779L2.09815e-06 0.877928L24 0.87793L24 24.8779Z"/>
</mask>
<path d="M23.75 0.87793L23.75 24.8779L24.25 24.8779L24.25 0.87793L23.75 0.87793Z" fill="#ECECED" mask="url(#path-6-inside-2_34_825)"/>
<path d="M7 13.8782L17 13.8782C17.5523 13.8782 18 13.4305 18 12.8782C18 12.3259 17.5523 11.8782 17 11.8782L7 11.8782C6.44771 11.8782 6 12.3259 6 12.8782C6 13.4305 6.44771 13.8782 7 13.8782Z" fill="#1A2649"/>
</svg>
