<svg width="21" height="21" viewBox="0 0 21 21" fill="none" xmlns="http://www.w3.org/2000/svg">
<path d="M20.024 5.85801C19.6123 5.34134 18.9981 5.04468 18.3381 5.04468H2.65981C1.99981 5.04468 1.38481 5.34051 0.973977 5.85801C0.55731 6.38051 0.405644 7.05301 0.55481 7.70385C1.22398 10.6222 3.22148 13.0197 5.83564 14.343L3.86064 19.4772C3.77814 19.6922 3.88481 19.933 4.09981 20.0155C4.14981 20.0338 4.19981 20.043 4.24981 20.043C4.41731 20.043 4.57564 19.9413 4.63898 19.7763L6.59564 14.6897C7.68564 15.1355 8.86314 15.4013 10.0831 15.4505V19.6263C10.0831 19.8563 10.2698 20.043 10.4998 20.043C10.7298 20.043 10.9165 19.8563 10.9165 19.6263V15.4505C12.1365 15.4013 13.314 15.1355 14.404 14.6888L16.3606 19.7763C16.424 19.9413 16.5823 20.043 16.7498 20.043C16.7998 20.043 16.8498 20.0338 16.8998 20.0155C17.1148 19.9322 17.2215 19.6913 17.139 19.4772L15.164 14.3422C17.7773 13.0188 19.774 10.6205 20.4431 7.70301C20.5931 7.05134 20.4398 6.37801 20.024 5.85635V5.85801ZM19.6306 7.51885C18.6865 11.6372 14.8465 14.6272 10.4998 14.6272C6.15314 14.6272 2.31148 11.6372 1.36731 7.51801C1.27481 7.11551 1.36898 6.69968 1.62564 6.37718C1.87814 6.05968 2.25481 5.87801 2.65981 5.87801H18.3373C18.7415 5.87801 19.119 6.05968 19.3715 6.37718C19.629 6.69968 19.7223 7.11551 19.6306 7.51885ZM10.0831 2.96134V0.461344C10.0831 0.231344 10.2698 0.0446777 10.4998 0.0446777C10.7298 0.0446777 10.9165 0.231344 10.9165 0.461344V2.96134C10.9165 3.19134 10.7298 3.37801 10.4998 3.37801C10.2698 3.37801 10.0831 3.19134 10.0831 2.96134ZM13.8331 2.96134V0.461344C13.8331 0.231344 14.0198 0.0446777 14.2498 0.0446777C14.4798 0.0446777 14.6665 0.231344 14.6665 0.461344V2.96134C14.6665 3.19134 14.4798 3.37801 14.2498 3.37801C14.0198 3.37801 13.8331 3.19134 13.8331 2.96134ZM6.33314 2.96134V0.461344C6.33314 0.231344 6.51981 0.0446777 6.74981 0.0446777C6.97981 0.0446777 7.16648 0.231344 7.16648 0.461344V2.96134C7.16648 3.19134 6.97981 3.37801 6.74981 3.37801C6.51981 3.37801 6.33314 3.19134 6.33314 2.96134Z" fill="#1A2649"/>
</svg>
