<svg width="16" height="16" viewBox="0 0 16 16" fill="none" xmlns="http://www.w3.org/2000/svg">
<path d="M13.7707 3.14598C12.9901 2.41531 11.9754 2.01931 10.9667 2.06064C10.0694 2.09731 9.24139 2.48531 8.63672 3.15331L8.00005 3.85531L7.36339 3.15331C6.75872 2.48598 5.93072 2.09798 5.03339 2.06064C4.02939 2.01864 3.01005 2.41531 2.22939 3.14598C1.49539 3.83331 0.646053 5.22931 0.667386 6.90398C0.688719 8.60864 1.57272 10.2493 3.29472 11.7793C3.87405 12.2946 4.56139 12.776 5.39739 13.2493C6.19805 13.7026 7.09805 13.9426 7.99939 13.9426C8.90072 13.9426 9.80072 13.7026 10.6014 13.2493C11.4374 12.776 12.1247 12.2953 12.7041 11.7793C14.4261 10.2486 15.3101 8.60864 15.3314 6.90398C15.3527 5.22931 14.5034 3.83331 13.7694 3.14664L13.7707 3.14598ZM12.2621 11.2813C11.7181 11.7653 11.0674 12.2193 10.2741 12.6693C8.87139 13.4626 7.12805 13.4626 5.72605 12.6693C4.93272 12.2193 4.28205 11.7653 3.73805 11.2813C2.16272 9.87998 1.35339 8.40464 1.33472 6.89464C1.31005 4.97598 2.54405 3.76464 2.68539 3.63198C3.30605 3.05064 4.10339 2.72398 4.89072 2.72398C5.67805 2.72398 6.37872 3.05864 6.87072 3.60064L7.75405 4.57531C7.88005 4.71464 8.12139 4.71464 8.24739 4.57531L9.13072 3.60064C9.62205 3.05864 10.2667 2.75598 10.9947 2.72664C11.8074 2.69598 12.6647 3.02264 13.3154 3.63198C13.4567 3.76398 14.6907 4.97598 14.6661 6.89464C14.6474 8.40464 13.8374 9.87998 12.2621 11.2813Z" fill="black"/>
</svg>
