<svg width="24" height="24" viewBox="0 0 24 24" fill="none" xmlns="http://www.w3.org/2000/svg">
<g clip-path="url(#clip0_14_5678)">
<path d="M22.017 5.83096L21 5.14496V1.49996C21 1.22396 20.776 0.999963 20.5 0.999963C20.224 0.999963 20 1.22396 20 1.49996V4.46996L14.517 0.769963C12.988 -0.262037 11.011 -0.261037 9.484 0.769963L1.983 5.83096C0.741 6.66796 0 8.06296 0 9.56096V19.5C0 21.981 2.019 24 4.5 24H7.5C7.776 24 8 23.776 8 23.5V14.5C8 13.673 8.673 13 9.5 13H14.5C15.327 13 16 13.673 16 14.5V23.5C16 23.776 16.224 24 16.5 24H19.5C21.981 24 24 21.981 24 19.5V9.56096C24 8.06196 23.259 6.66796 22.017 5.83096ZM23 19.5C23 21.43 21.43 23 19.5 23H17V14.5C17 13.122 15.879 12 14.5 12H9.5C8.121 12 7 13.122 7 14.5V23H4.5C2.57 23 1 21.43 1 19.5V9.56096C1 8.39496 1.576 7.31096 2.542 6.65996L10.042 1.59896C11.231 0.795963 12.769 0.795963 13.958 1.59896L21.458 6.65996C22.424 7.31096 23 8.39596 23 9.56096V19.5Z" fill="#1A2649"/>
</g>
<defs>
<clipPath id="clip0_14_5678">
<rect width="24" height="24" fill="white"/>
</clipPath>
</defs>
</svg>
