<svg width="16" height="16" viewBox="0 0 16 16" fill="none" xmlns="http://www.w3.org/2000/svg">
<g clip-path="url(#clip0_16_5754)">
<path d="M15.2393 9.108L13.974 4.55067C13.2293 1.87133 10.7673 0 7.986 0C5.05133 0 2.55667 2.00133 1.92333 4.85333L0.746 9.27667C0.525334 10.268 0.763334 11.292 1.39933 12.0867C2.036 12.8787 2.98333 13.3333 3.99933 13.3333H4.74733C5.06067 14.87 6.40067 16 7.99933 16C9.598 16 10.938 14.87 11.2513 13.3333H12.0273C13.078 13.3333 14.0453 12.8533 14.6813 12.0167C15.3173 11.1807 15.5207 10.1207 15.2393 9.108ZM8 15.3333C6.76733 15.3333 5.724 14.4947 5.426 13.3333H10.5747C10.276 14.4947 9.23333 15.3333 8.00067 15.3333H8ZM14.1513 11.6133C13.6427 12.2827 12.8687 12.6667 12.028 12.6667H4C3.18667 12.6667 2.42867 12.3027 1.92 11.6693C1.41067 11.0347 1.22067 10.2147 1.394 9.43467L2.57133 5.01067C3.13933 2.45333 5.366 0.666667 7.986 0.666667C10.4687 0.666667 12.6667 2.33733 13.3307 4.72933L14.596 9.28667C14.8213 10.0973 14.6593 10.9447 14.1513 11.6133Z" fill="black"/>
</g>
<defs>
<clipPath id="clip0_16_5754">
<rect width="16" height="16" rx="8" fill="white"/>
</clipPath>
</defs>
</svg>
