<svg width="20" height="21" viewBox="0 0 20 21" fill="none" xmlns="http://www.w3.org/2000/svg">
<path d="M19.8208 10.3023L18.43 3.08565C18.09 1.32399 16.5408 0.0456547 14.7475 0.0456547H5.2525C3.45833 0.0448214 1.91 1.32399 1.57 3.08482L0.178333 10.304C0.06 10.9357 0 11.5823 0 12.2248V16.2948C0 18.3623 1.6825 20.0448 3.75 20.0448H16.25C18.3175 20.0448 20 18.3623 20 16.2948V12.2248C20 11.579 19.94 10.9332 19.8208 10.3023ZM17.6117 3.24315L19.0025 10.4582C19.0283 10.5965 19.0417 10.7382 19.0617 10.8782H17.4408L16.6667 5.87815V1.60815C17.14 2.02399 17.485 2.58815 17.6117 3.24232V3.24315ZM4.16667 5.87815H15.8383L16.5975 10.8782H3.40167L4.16667 5.87815ZM14.7475 0.878155C15.13 0.878155 15.495 0.958988 15.8333 1.09565L15.8375 5.04482H4.16667V1.09482C4.505 0.958155 4.87 0.878155 5.2525 0.878155H14.7475ZM2.38833 3.24315C2.51417 2.58815 2.86 2.02315 3.33417 1.60732L3.33833 5.81482L2.55917 10.8782H0.938333C0.958333 10.739 0.970833 10.5982 0.996667 10.4598L2.38833 3.24315ZM19.1667 16.2948C19.1667 17.9032 17.8583 19.2115 16.25 19.2115H3.75C2.14167 19.2115 0.833333 17.9032 0.833333 16.2948V12.2248C0.833333 12.054 0.848333 11.8832 0.8575 11.7115H19.1425C19.1517 11.8823 19.1667 12.0532 19.1667 12.2248V16.2948ZM12.5 15.4615C12.5 15.6915 12.3133 15.8782 12.0833 15.8782H7.91667C7.68667 15.8782 7.5 15.6915 7.5 15.4615C7.5 15.2315 7.68667 15.0448 7.91667 15.0448H12.0833C12.3133 15.0448 12.5 15.2315 12.5 15.4615Z" fill="#1A2649"/>
</svg>
