<svg width="12" height="12" viewBox="0 0 12 12" fill="none" xmlns="http://www.w3.org/2000/svg">
<path d="M0.1215 4.22188L5.2765 7.31488C5.5 7.44888 5.75 7.51538 6.0005 7.51538C6.251 7.51538 6.501 7.44838 6.7245 7.31488L11.8795 4.22188C11.9545 4.17688 12.001 4.09538 12.001 4.00738C12.001 3.91938 11.955 3.83838 11.8795 3.79288L6.724 0.700381C6.277 0.432881 5.723 0.432881 5.276 0.700381L0.1215 3.79338C0.0465 3.83838 0 3.91988 0 4.00788C0 4.09588 0.046 4.17638 0.1215 4.22188ZM6.4665 6.88588C6.179 7.05888 5.821 7.05888 5.5335 6.88588L3.611 5.73238L6 4.29888L8.389 5.73238L6.4665 6.88588ZM8.875 5.44088L6.486 4.00738L8.875 2.57388L11.264 4.00738L8.875 5.44088ZM5.5335 1.12888C5.821 0.956381 6.179 0.956381 6.4665 1.12888L8.389 2.28238L6 3.71588L3.611 2.28238L5.5335 1.12888ZM3.125 2.57388L5.514 4.00738L3.125 5.44088L0.736 4.00738L3.125 2.57388ZM11.9645 5.67088C12.0355 5.78938 11.997 5.94288 11.879 6.01388L6.129 9.46388C6.0895 9.48788 6.045 9.49938 6.0005 9.49938C5.956 9.49938 5.9115 9.48788 5.872 9.46388L0.1215 6.01438C0.003 5.94338 -0.035 5.78988 0.036 5.67138C0.107 5.55338 0.2605 5.51488 0.379 5.58588L6.0005 8.95888L11.622 5.58588C11.7405 5.51488 11.894 5.55338 11.965 5.67138L11.9645 5.67088ZM11.9645 7.42088C12.0355 7.53888 11.997 7.69288 11.879 7.76388L6.129 11.2139C6.0895 11.2379 6.045 11.2494 6.0005 11.2494C5.956 11.2494 5.9115 11.2379 5.872 11.2139L0.1215 7.76388C0.003 7.69288 -0.035 7.53938 0.036 7.42088C0.107 7.30238 0.2605 7.26288 0.379 7.33488L6.0005 10.7079L11.622 7.33488C11.7405 7.26238 11.8935 7.30288 11.9645 7.42088Z" fill="black"/>
</svg>
