<svg width="20" height="20" viewBox="0 0 20 20" fill="none" xmlns="http://www.w3.org/2000/svg">
<g clip-path="url(#clip0_433_1421)">
<path d="M9.99748 0.833252C4.12248 0.869919 0.85498 4.33492 0.85498 9.99242C0.85498 15.7974 4.04081 19.1316 10.0025 19.1666C15.9583 19.1316 19.035 16.0499 19.145 9.99242C19.0433 4.12409 15.7966 0.870752 9.99748 0.833252ZM10.0025 18.3333C4.51248 18.3008 1.79248 15.5749 1.68831 9.99992C1.78831 4.50409 4.58581 1.70075 9.99665 1.66659C13.7241 1.69075 18.1925 3.15825 18.3108 9.99242C18.2091 15.5724 15.49 18.3008 10.0016 18.3333H10.0025Z" fill="black"/>
<path d="M10.495 8.98755H9.50505C9.27505 8.98755 9.08838 9.17422 9.08838 9.40422C9.08838 9.63422 9.27505 9.82088 9.50505 9.82088H10.0784V13.2817C10.0784 13.5117 10.265 13.6984 10.495 13.6984C10.725 13.6984 10.9117 13.5117 10.9117 13.2817V9.40422C10.9117 9.17422 10.725 8.98755 10.495 8.98755Z" fill="black"/>
<path d="M10 7.5542C10.3452 7.5542 10.625 7.27438 10.625 6.9292C10.625 6.58402 10.3452 6.3042 10 6.3042C9.65482 6.3042 9.375 6.58402 9.375 6.9292C9.375 7.27438 9.65482 7.5542 10 7.5542Z" fill="black"/>
</g>
<defs>
<clipPath id="clip0_433_1421">
<rect width="20" height="20" fill="white"/>
</clipPath>
</defs>
</svg>
