<svg width="21" height="21" viewBox="0 0 21 21" fill="none" xmlns="http://www.w3.org/2000/svg">
<path d="M16.75 3.87777H13V3.04443C13 1.6661 11.8783 0.544434 10.5 0.544434C9.12167 0.544434 8 1.6661 8 3.04443V3.87777H4.25C2.1825 3.87777 0.5 5.56027 0.5 7.62777V16.7944C0.5 18.8619 2.1825 20.5444 4.25 20.5444H16.75C18.8175 20.5444 20.5 18.8619 20.5 16.7944V7.62777C20.5 5.56027 18.8175 3.87777 16.75 3.87777ZM8.83333 3.04443C8.83333 2.12527 9.58083 1.37777 10.5 1.37777C11.4192 1.37777 12.1667 2.12527 12.1667 3.04443V5.54443C12.1667 6.00443 11.7933 6.37777 11.3333 6.37777H9.66667C9.20667 6.37777 8.83333 6.00443 8.83333 5.54443V3.04443ZM19.6667 16.7944C19.6667 18.4028 18.3583 19.7111 16.75 19.7111H4.25C2.64167 19.7111 1.33333 18.4028 1.33333 16.7944V7.62777C1.33333 6.01943 2.64167 4.7111 4.25 4.7111H8V5.54443C8 6.4636 8.7475 7.2111 9.66667 7.2111H11.3333C12.2525 7.2111 13 6.4636 13 5.54443V4.7111H16.75C18.3583 4.7111 19.6667 6.01943 19.6667 7.62777V16.7944ZM8 9.7111H5.5C4.58083 9.7111 3.83333 10.4586 3.83333 11.3778V15.5444C3.83333 16.4636 4.58083 17.2111 5.5 17.2111H8C8.91917 17.2111 9.66667 16.4636 9.66667 15.5444V11.3778C9.66667 10.4586 8.91917 9.7111 8 9.7111ZM8.83333 15.5444C8.83333 16.0044 8.46 16.3778 8 16.3778H5.5C5.04 16.3778 4.66667 16.0044 4.66667 15.5444V11.3778C4.66667 10.9178 5.04 10.5444 5.5 10.5444H8C8.46 10.5444 8.83333 10.9178 8.83333 11.3778V15.5444ZM17.1667 13.4611C17.1667 13.6911 16.98 13.8778 16.75 13.8778H11.75C11.52 13.8778 11.3333 13.6911 11.3333 13.4611C11.3333 13.2311 11.52 13.0444 11.75 13.0444H16.75C16.98 13.0444 17.1667 13.2311 17.1667 13.4611ZM17.1667 10.1278C17.1667 10.3578 16.98 10.5444 16.75 10.5444H11.75C11.52 10.5444 11.3333 10.3578 11.3333 10.1278C11.3333 9.89777 11.52 9.7111 11.75 9.7111H16.75C16.98 9.7111 17.1667 9.89777 17.1667 10.1278ZM15.5 16.7944C15.5 17.0244 15.3133 17.2111 15.0833 17.2111H11.75C11.52 17.2111 11.3333 17.0244 11.3333 16.7944C11.3333 16.5644 11.52 16.3778 11.75 16.3778H15.0833C15.3133 16.3778 15.5 16.5644 15.5 16.7944Z" fill="#1A2649"/>
</svg>
