<svg width="20" height="20" viewBox="0 0 20 20" fill="none" xmlns="http://www.w3.org/2000/svg">
<path d="M9.99996 20C8.98579 20 7.90579 19.4633 7.18079 18.6008C3.62496 14.3708 1.66663 10.7242 1.66663 8.33333C1.66663 3.73833 5.40496 0 9.99996 0C14.595 0 18.3333 3.73833 18.3333 8.33333C18.3333 10.7242 16.375 14.3708 12.8191 18.6008C12.095 19.4633 11.0141 20 9.99996 20ZM9.99996 0.833333C5.86496 0.833333 2.49996 4.19833 2.49996 8.33333C2.49996 10.4958 4.43913 14.0433 7.81913 18.065C8.38079 18.7342 9.23746 19.1658 9.99996 19.1658C10.7625 19.1658 11.6183 18.7333 12.1808 18.065C15.5616 14.0433 17.5 10.4958 17.5 8.33333C17.5 4.1975 14.1358 0.833333 9.99996 0.833333Z" fill="#1A2649"/>
<path d="M9.99996 11.6667C8.16163 11.6667 6.66663 10.1717 6.66663 8.33333C6.66663 6.495 8.16163 5 9.99996 5C11.8383 5 13.3333 6.495 13.3333 8.33333C13.3333 10.1717 11.8383 11.6667 9.99996 11.6667ZM9.99996 5.83333C8.62163 5.83333 7.49996 6.955 7.49996 8.33333C7.49996 9.71167 8.62163 10.8333 9.99996 10.8333C11.3783 10.8333 12.5 9.71167 12.5 8.33333C12.5 6.955 11.3783 5.83333 9.99996 5.83333Z" fill="#1A2649"/>
</svg>
