<svg width="20" height="18" viewBox="0 0 20 18" fill="none" xmlns="http://www.w3.org/2000/svg">
<path d="M20.0001 10.3779C20.0001 12.8046 19.1167 15.1454 17.5134 16.9688C16.5376 18.0788 14.8284 18.1913 13.7076 17.2188L13.2126 16.7921C13.0384 16.6413 13.0201 16.3779 13.1692 16.2038C13.3217 16.0288 13.5842 16.0121 13.7576 16.1604L14.2526 16.5879C15.0301 17.2629 16.2142 17.1871 16.8876 16.4188C18.3576 14.7471 19.1667 12.6021 19.1667 10.3779C19.1667 7.66378 17.9734 5.10544 15.8942 3.35711C13.8167 1.61044 11.0659 0.881276 8.34422 1.35628C4.40422 2.04378 1.41672 5.18711 0.910054 9.17794C0.570887 11.8496 1.35422 14.4229 3.11672 16.4238C3.77755 17.1729 4.98255 17.2488 5.74839 16.5888L6.24255 16.1613C6.41589 16.0104 6.67922 16.0296 6.83089 16.2038C6.98172 16.3779 6.96172 16.6404 6.78839 16.7913L6.29422 17.2188C5.78089 17.6629 5.14505 17.8813 4.51339 17.8813C3.76422 17.8813 3.02005 17.5746 2.49172 16.9738C0.568387 14.7913 -0.286613 11.9854 0.0833874 9.07378C0.635887 4.71711 3.89839 1.28628 8.20172 0.535442C11.1667 0.0129423 14.1642 0.812942 16.4309 2.71878C18.6992 4.62544 20.0001 7.41711 20.0001 10.3771V10.3779ZM11.4351 9.53211C11.5817 9.78044 11.6667 10.0696 11.6667 10.3779C11.6667 11.2971 10.9192 12.0446 10.0001 12.0446C9.08089 12.0446 8.33339 11.2971 8.33339 10.3779C8.33339 9.45878 9.08089 8.71128 10.0001 8.71128C10.3084 8.71128 10.5976 8.79628 10.8459 8.94294L13.8717 5.91711C14.0342 5.75461 14.2984 5.75461 14.4609 5.91711C14.6234 6.07961 14.6234 6.34378 14.4609 6.50628L11.4351 9.53211ZM10.8334 10.3779C10.8334 9.91794 10.4592 9.54461 10.0001 9.54461C9.54089 9.54461 9.16672 9.91794 9.16672 10.3779C9.16672 10.8379 9.54089 11.2113 10.0001 11.2113C10.4592 11.2113 10.8334 10.8379 10.8334 10.3779Z" fill="#1A2649"/>
</svg>
