<svg width="28" height="23" viewBox="0 0 28 23" fill="none" xmlns="http://www.w3.org/2000/svg">
<path d="M2.18752 2.84326H24.0625C25.2657 2.84326 26.2501 3.73765 26.2501 4.83082V7.21589C26.2501 8.30905 25.2657 9.20344 24.0625 9.20344H2.18752C0.984372 9.20334 0 8.30895 0 7.21584V4.83077C0 3.73765 0.984372 2.84326 2.18752 2.84326Z" fill="#A86A3F"/>
<path d="M6.97838 4.97006L20.6722 1.67077C21.1316 1.55152 21.6128 1.8099 21.744 2.2273L24.019 9.85944C24.1503 10.2768 23.8659 10.7141 23.4065 10.8333L5.57839 15.1462C5.119 15.2655 4.63778 15.0071 4.50653 14.5897L2.84399 8.98489L6.97838 4.97006Z" fill="#3DB39E"/>
<path d="M21.6347 9.62124L18.6816 10.3367C18.4409 10.3964 18.2003 10.2771 18.1566 10.0585C18.0909 9.83985 18.2222 9.62119 18.4628 9.58148L21.0003 8.96535L19.6441 4.3543L17.1066 4.97042C16.866 5.03007 16.6253 4.91077 16.5816 4.69216C16.516 4.47354 16.6473 4.25488 16.8879 4.21517L19.841 3.49968C20.0816 3.44003 20.3223 3.55933 20.366 3.77794L21.941 9.14425C22.0065 9.36286 21.8753 9.58148 21.6347 9.62124ZM9.38465 12.6224L6.43153 13.3379C6.19092 13.3976 5.95026 13.2783 5.90655 13.0597L4.33154 7.69334C4.26589 7.47473 4.39719 7.25606 4.6378 7.21635L7.59091 6.50086C7.83152 6.44121 8.07219 6.56051 8.1159 6.77912C8.18155 6.99774 8.05025 7.2164 7.80964 7.25612L5.27214 7.87224L6.62837 12.4833L9.16587 11.8672C9.40647 11.8075 9.64714 11.9268 9.69085 12.1454C9.7565 12.3442 9.62526 12.5628 9.38465 12.6224Z" fill="#78CABB"/>
<path d="M0.175015 7.75251C4.06874 5.72519 14.5688 0.140198 14.5688 0.140198C14.9844 -0.0784151 15.5313 0.0408332 15.7719 0.418461L20.1469 7.25559C20.3876 7.63321 20.2344 8.11021 19.8188 8.32887L3.80624 16.6765C3.39062 16.8951 2.84376 16.7759 2.60309 16.3982C2.60309 16.3982 1.37811 14.1325 0.153076 12.2244C0.153132 7.75251 0.175015 9.22326 0.175015 7.75251Z" fill="#5ABEAC"/>
<path d="M17.9159 7.03677L14.8535 2.22692C14.7222 2.02819 14.4597 1.96854 14.2628 2.08779L11.616 3.47905C11.3972 3.5983 11.3316 3.8368 11.4628 4.0157C11.5941 4.21443 11.8566 4.27408 12.0535 4.15483L14.3285 2.96229L16.9535 7.09637L14.6785 8.28891C14.4598 8.40815 14.3941 8.64665 14.5254 8.82555C14.6566 9.02428 14.9191 9.08393 15.116 8.96468L17.7629 7.57342C17.9597 7.47405 18.0472 7.23555 17.9159 7.03677ZM6.32219 12.6615L4.04719 13.8541L1.42216 9.71994L3.69716 8.5274C3.91588 8.40815 3.98153 8.16966 3.85029 7.99076C3.71904 7.79203 3.45655 7.73238 3.25965 7.85163L0.612797 9.24289C0.394072 9.36214 0.328422 9.60064 0.459668 9.77954L3.52215 14.5894C3.65339 14.7881 3.91588 14.8478 4.11278 14.7285L6.75964 13.3373C6.97836 13.218 7.04401 12.9795 6.91277 12.8006C6.80341 12.6218 6.54091 12.5422 6.32219 12.6615ZM7.43781 5.64551C5.75344 6.52001 5.18469 8.4678 6.14718 9.9982C7.13155 11.5286 9.25342 12.0454 10.9378 11.1708C12.6222 10.2963 13.1909 8.34855 12.2284 6.81816C11.244 5.3076 9.12218 4.771 7.43781 5.64551ZM17.9159 7.03677L14.8535 2.22692C14.7222 2.02819 14.4597 1.96854 14.2628 2.08779L11.616 3.47905C11.3972 3.5983 11.3316 3.8368 11.4628 4.0157C11.5941 4.21443 11.8566 4.27408 12.0535 4.15483L14.3285 2.96229L16.9535 7.09637L14.6785 8.28891C14.4598 8.40815 14.3941 8.64665 14.5254 8.82555C14.6566 9.02428 14.9191 9.08393 15.116 8.96468L17.7629 7.57342C17.9597 7.47405 18.0472 7.23555 17.9159 7.03677ZM6.32219 12.6615L4.04719 13.8541L1.42216 9.71994L3.69716 8.5274C3.91588 8.40815 3.98153 8.16966 3.85029 7.99076C3.71904 7.79203 3.45655 7.73238 3.25965 7.85163L0.612797 9.24289C0.394072 9.36214 0.328422 9.60064 0.459668 9.77954L3.52215 14.5894C3.65339 14.7881 3.91588 14.8478 4.11278 14.7285L6.75964 13.3373C6.97836 13.218 7.04401 12.9795 6.91277 12.8006C6.80341 12.6218 6.54091 12.5422 6.32219 12.6615ZM7.43781 5.64551C5.75344 6.52001 5.18469 8.4678 6.14718 9.9982C7.13155 11.5286 9.25342 12.0454 10.9378 11.1708C12.6222 10.2963 13.1909 8.34855 12.2284 6.81816C11.244 5.3076 9.12218 4.771 7.43781 5.64551Z" fill="#8CD2C5"/>
<path d="M24.9376 22.7187H2.18752C0.984372 22.7187 0 21.8243 0 20.7311V6.42086H24.9376C26.1407 6.42086 27.1251 7.31524 27.1251 8.40841V20.7312C27.125 21.8243 26.1407 22.7187 24.9376 22.7187ZM1.75002 6.42086H0V4.83081C0 5.70532 0.787476 6.42086 1.75002 6.42086Z" fill="#C47E4D"/>
<path d="M27.1252 17.7494H23.6252C21.9409 17.7494 20.5627 16.4972 20.5627 14.9669C20.5627 13.4365 21.9409 12.1843 23.6252 12.1843H27.1252C27.6065 12.1843 28.0002 12.5421 28.0002 12.9793V16.9544C28.0002 17.3916 27.6065 17.7494 27.1252 17.7494Z" fill="#A86A3F"/>
<path d="M23.6255 13.377C24.588 13.377 25.3755 14.0924 25.3755 14.967C25.3755 15.8416 24.5881 16.557 23.6255 16.557C22.663 16.557 21.8755 15.8416 21.8755 14.967C21.8755 14.0924 22.663 13.377 23.6255 13.377Z" fill="#EFC75E"/>
<path d="M24.063 16.1598C23.1005 16.1598 22.313 15.4443 22.313 14.5698C22.313 14.2319 22.4224 13.9139 22.6193 13.6555C22.1599 13.9338 21.8755 14.4108 21.8755 14.9673C21.8755 15.8418 22.663 16.5573 23.6255 16.5573C24.2161 16.5573 24.7411 16.2791 25.0693 15.8816C24.7849 16.0605 24.4349 16.1598 24.063 16.1598Z" fill="#D7B354"/>
<path d="M24.9376 21.9233H2.18752C0.984372 21.9233 0 21.029 0 19.9358V20.7308C0 21.824 0.984372 22.7184 2.18752 22.7184H24.9376C26.1407 22.7184 27.1251 21.824 27.1251 20.7308V19.9358C27.125 21.029 26.1407 21.9233 24.9376 21.9233Z" fill="#B27245"/>
<path d="M24.9376 6.42086H1.75002C0.787476 6.42086 0 5.70532 0 4.83081V5.62583C0 6.50034 0.787476 7.21588 1.75002 7.21588H24.9376C26.1407 7.21588 27.1251 8.11027 27.1251 9.20343V8.40841C27.125 7.31524 26.1407 6.42086 24.9376 6.42086Z" fill="#CA8B5F"/>
</svg>
