<svg width="25" height="21" viewBox="0 0 25 21" fill="none" xmlns="http://www.w3.org/2000/svg">
<path d="M24.1433 15.805L22.1713 4.631C21.7493 2.237 19.6783 0.5 17.2473 0.5H7.16331C3.70531 0.5 2.49931 3.155 2.23931 4.631L0.267311 15.805C0.0613115 16.972 0.380311 18.162 1.14231 19.072C1.90431 19.98 3.02131 20.501 4.20631 20.501H5.20531C5.75731 20.501 6.20531 20.054 6.20531 19.501C6.20531 18.948 5.75731 18.501 5.20531 18.501H4.20631C3.61331 18.501 3.05531 18.24 2.67431 17.786C2.29331 17.332 2.13331 16.737 2.23631 16.153L4.20831 4.979C4.27031 4.625 4.39331 4.295 4.56331 4L6.90231 16.426C7.34731 18.787 9.41331 20.501 11.8163 20.501H20.2033C21.3893 20.501 22.5063 19.98 23.2673 19.072C24.0293 18.163 24.3493 16.972 24.1433 15.805ZM21.7363 17.785C21.3553 18.239 20.7973 18.5 20.2043 18.5H11.8173C10.3763 18.5 9.13631 17.472 8.86931 16.056L6.33831 2.615C6.60131 2.54 6.87831 2.501 7.16231 2.501H17.2473C18.7053 2.501 19.9483 3.543 20.2013 4.98L22.1733 16.154C22.2763 16.738 22.1173 17.333 21.7353 17.787L21.7363 17.785ZM10.2053 7.5C9.65331 7.5 9.20531 7.052 9.20531 6.5C9.20531 5.948 9.65331 5.5 10.2053 5.5H17.2053C17.7573 5.5 18.2053 5.948 18.2053 6.5C18.2053 7.052 17.7573 7.5 17.2053 7.5H10.2053ZM10.9363 11.5C10.3843 11.5 9.93631 11.052 9.93631 10.5C9.93631 9.948 10.3843 9.5 10.9363 9.5H17.9363C18.4883 9.5 18.9363 9.948 18.9363 10.5C18.9363 11.052 18.4883 11.5 17.9363 11.5H10.9363ZM19.7053 14.5C19.7053 15.053 19.2573 15.5 18.7053 15.5H11.7053C11.1533 15.5 10.7053 15.053 10.7053 14.5C10.7053 13.947 11.1533 13.5 11.7053 13.5H18.7053C19.2573 13.5 19.7053 13.947 19.7053 14.5Z" fill="#006699"/>
</svg>
