<svg width="21" height="25" viewBox="0 0 21 25" fill="none" xmlns="http://www.w3.org/2000/svg">
<path d="M16 24.5H5C2.519 24.5 0.5 22.481 0.5 20V5C0.5 2.519 2.519 0.5 5 0.5H16C18.481 0.5 20.5 2.519 20.5 5V20C20.5 22.481 18.481 24.5 16 24.5ZM5 1.5C3.07 1.5 1.5 3.07 1.5 5V20C1.5 21.93 3.07 23.5 5 23.5H16C17.93 23.5 19.5 21.93 19.5 20V5C19.5 3.07 17.93 1.5 16 1.5H5ZM16.5 6C16.5 5.724 16.276 5.5 16 5.5H10C9.724 5.5 9.5 5.724 9.5 6C9.5 6.276 9.724 6.5 10 6.5H16C16.276 6.5 16.5 6.276 16.5 6ZM16.5 12C16.5 11.724 16.276 11.5 16 11.5H10C9.724 11.5 9.5 11.724 9.5 12C9.5 12.276 9.724 12.5 10 12.5H16C16.276 12.5 16.5 12.276 16.5 12ZM16.5 18C16.5 17.724 16.276 17.5 16 17.5H10C9.724 17.5 9.5 17.724 9.5 18C9.5 18.276 9.724 18.5 10 18.5H16C16.276 18.5 16.5 18.276 16.5 18ZM7 7.5H5C4.724 7.5 4.5 7.276 4.5 7V5C4.5 4.724 4.724 4.5 5 4.5H7C7.276 4.5 7.5 4.724 7.5 5V7C7.5 7.276 7.276 7.5 7 7.5ZM5.5 6.5H6.5V5.5H5.5V6.5ZM7 13.5H5C4.724 13.5 4.5 13.276 4.5 13V11C4.5 10.724 4.724 10.5 5 10.5H7C7.276 10.5 7.5 10.724 7.5 11V13C7.5 13.276 7.276 13.5 7 13.5ZM5.5 12.5H6.5V11.5H5.5V12.5ZM7 19.5H5C4.724 19.5 4.5 19.276 4.5 19V17C4.5 16.724 4.724 16.5 5 16.5H7C7.276 16.5 7.5 16.724 7.5 17V19C7.5 19.276 7.276 19.5 7 19.5ZM5.5 18.5H6.5V17.5H5.5V18.5Z" fill="#999999"/>
</svg>
