<svg width="20" height="21" viewBox="0 0 20 21" fill="none" xmlns="http://www.w3.org/2000/svg">
<g clip-path="url(#clip0_42_1211)">
<path d="M14.9826 20.0105C15.0476 20.2313 14.9218 20.4622 14.7001 20.5272C14.6609 20.5388 14.6218 20.5447 14.5826 20.5447C14.4018 20.5447 14.2359 20.4272 14.1834 20.2455C13.6576 18.4588 11.9376 17.2113 9.99926 17.2113C8.06093 17.2113 6.34093 18.4588 5.81509 20.2455C5.75093 20.4672 5.51759 20.5922 5.29843 20.528C5.07676 20.463 4.95093 20.2322 5.01593 20.0113C5.64426 17.8722 7.69343 16.3788 9.99843 16.3788C12.3034 16.3788 14.3534 17.8722 14.9809 20.0113L14.9826 20.0105ZM19.9826 12.5105C19.3543 10.3713 17.3051 8.87801 15.0001 8.87801C14.7701 8.87801 14.5834 9.06468 14.5834 9.29468C14.5834 9.52468 14.7701 9.71134 15.0001 9.71134C16.9376 9.71134 18.6584 10.9588 19.1843 12.7455C19.2368 12.928 19.4034 13.0447 19.5834 13.0447C19.6226 13.0447 19.6618 13.0388 19.7009 13.0272C19.9226 12.9622 20.0476 12.7313 19.9826 12.5105ZM5.41676 9.29468C5.41676 9.06468 5.23009 8.87801 5.00009 8.87801C2.69426 8.87801 0.645095 10.3713 0.017595 12.5105C-0.047405 12.7313 0.0784283 12.9622 0.300095 13.0272C0.339262 13.0388 0.378428 13.0447 0.417595 13.0447C0.598428 13.0447 0.764262 12.9272 0.816762 12.7455C1.34259 10.9588 3.06259 9.71134 5.00093 9.71134C5.23093 9.71134 5.41676 9.52468 5.41676 9.29468ZM10.0001 8.04468C11.8384 8.04468 13.3334 9.53968 13.3334 11.378C13.3334 13.2163 11.8384 14.7113 10.0001 14.7113C8.16176 14.7113 6.66676 13.2163 6.66676 11.378C6.66676 9.53968 8.16176 8.04468 10.0001 8.04468ZM7.50009 11.378C7.50009 12.7563 8.62176 13.878 10.0001 13.878C11.3784 13.878 12.5001 12.7563 12.5001 11.378C12.5001 9.99968 11.3784 8.87801 10.0001 8.87801C8.62176 8.87801 7.50009 9.99968 7.50009 11.378ZM11.6668 3.87801C11.6668 2.03968 13.1618 0.544678 15.0001 0.544678C16.8384 0.544678 18.3334 2.03968 18.3334 3.87801C18.3334 5.71634 16.8384 7.21134 15.0001 7.21134C13.1618 7.21134 11.6668 5.71634 11.6668 3.87801ZM12.5001 3.87801C12.5001 5.25634 13.6218 6.37801 15.0001 6.37801C16.3784 6.37801 17.5001 5.25634 17.5001 3.87801C17.5001 2.49968 16.3784 1.37801 15.0001 1.37801C13.6218 1.37801 12.5001 2.49968 12.5001 3.87801ZM1.66676 3.87801C1.66676 2.03968 3.16176 0.544678 5.00009 0.544678C6.83843 0.544678 8.33343 2.03968 8.33343 3.87801C8.33343 5.71634 6.83843 7.21134 5.00009 7.21134C3.16176 7.21134 1.66676 5.71634 1.66676 3.87801ZM2.5001 3.87801C2.5001 5.25634 3.62176 6.37801 5.00009 6.37801C6.37843 6.37801 7.50009 5.25634 7.50009 3.87801C7.50009 2.49968 6.37843 1.37801 5.00009 1.37801C3.62176 1.37801 2.5001 2.49968 2.5001 3.87801Z" fill="#1A2649"/>
</g>
<defs>
<clipPath id="clip0_42_1211">
<rect width="20" height="20" fill="white" transform="translate(0 0.544678)"/>
</clipPath>
</defs>
</svg>
