<svg width="20" height="20" viewBox="0 0 20 20" fill="none" xmlns="http://www.w3.org/2000/svg">
<path d="M23.731 23.024L17.41 16.703C19.017 14.928 20.006 12.583 20.006 10.005C20.006 4.49198 15.52 0.00598145 10.006 0.00598145C4.49198 0.00598145 0.00598145 4.49198 0.00598145 10.006C0.00598145 15.52 4.49198 20.006 10.006 20.006C12.583 20.006 14.928 19.018 16.703 17.411L23.024 23.732C23.122 23.83 23.25 23.878 23.378 23.878C23.506 23.878 23.634 23.829 23.732 23.732C23.927 23.537 23.927 23.22 23.732 23.025L23.731 23.024ZM1.00598 10.006C1.00598 5.04298 5.04298 1.00598 10.006 1.00598C14.969 1.00598 19.006 5.04398 19.006 10.006C19.006 14.968 14.969 19.006 10.006 19.006C5.04298 19.006 1.00598 14.968 1.00598 10.006Z" fill="#4F4B5C"/>
</svg>
