<svg width="24" height="25" viewBox="0 0 24 25" fill="none" xmlns="http://www.w3.org/2000/svg">
<path d="M9.79999 10.3021C9.04499 11.0551 8.67799 11.7781 8.67799 12.5101C8.67799 13.4671 9.31799 14.2161 9.79999 14.6971C10.54 15.4361 11.27 15.8051 12 15.8051C12.73 15.8051 13.46 15.4351 14.2 14.6971C14.955 13.9441 15.322 13.2211 15.322 12.4891C15.322 11.5321 14.682 10.7831 14.2 10.3021C12.72 8.8241 11.28 8.8241 9.79999 10.3021ZM13.494 13.9901C12.243 15.2381 11.452 14.9341 10.506 13.9901C9.94099 13.4261 9.67799 12.9561 9.67799 12.5111C9.67799 12.0571 9.94899 11.5671 10.506 11.0111C11.089 10.4291 11.571 10.1851 12.017 10.1851C12.528 10.1851 12.989 10.5071 13.495 11.0111C14.06 11.5751 14.323 12.0451 14.323 12.4901C14.323 12.9441 14.051 13.4341 13.494 13.9901Z" fill="#999999"/>
<path d="M9.79999 10.3019C9.04499 11.0549 8.67799 11.7779 8.67799 12.5099C8.67799 13.4669 9.31799 14.2159 9.79999 14.6969C10.54 15.4359 11.27 15.8049 12 15.8049C12.73 15.8049 13.46 15.4349 14.2 14.6969C14.955 13.9439 15.322 13.2209 15.322 12.4889C15.322 11.5319 14.682 10.7829 14.2 10.3019C12.72 8.82386 11.28 8.82386 9.79999 10.3019ZM13.494 13.9899C12.243 15.2379 11.452 14.9339 10.506 13.9899C9.94099 13.4259 9.67799 12.9559 9.67799 12.5109C9.67799 12.0569 9.94899 11.5669 10.506 11.0109C11.089 10.4289 11.571 10.1849 12.017 10.1849C12.528 10.1849 12.989 10.5069 13.495 11.0109C14.06 11.5749 14.323 12.0449 14.323 12.4899C14.323 12.9439 14.051 13.4339 13.494 13.9899Z" fill="#999999"/>
<path d="M23.019 12.448C23.027 10.853 22.202 9.96698 20.498 9.74798C20.31 9.35398 20.081 8.96098 19.804 8.55998C21.009 7.10398 21.014 5.86598 19.83 4.68398C18.647 3.50298 17.405 3.50898 15.946 4.71298C15.545 4.43898 15.152 4.21198 14.758 4.02498C14.541 2.31898 13.624 1.50098 12.053 1.50098C10.451 1.50898 9.558 2.34998 9.328 4.06998C8.936 4.25898 8.537 4.49098 8.138 4.76098C6.687 3.56398 5.444 3.56698 4.248 4.76098C3.07 5.93598 3.068 7.20898 4.247 8.64298C3.974 9.04298 3.741 9.44098 3.551 9.83198C1.832 10.061 0.990998 10.954 0.982998 12.553C0.974998 14.148 1.8 15.034 3.504 15.253C3.692 15.647 3.921 16.04 4.198 16.441C2.993 17.897 2.988 19.135 4.172 20.317C5.356 21.499 6.597 21.493 8.056 20.288C8.457 20.562 8.85 20.789 9.244 20.976C9.46 22.673 10.357 23.5 11.926 23.5C13.531 23.5 14.445 22.651 14.675 20.931C15.067 20.742 15.466 20.51 15.865 20.24C17.316 21.437 18.559 21.433 19.755 20.24C20.933 19.065 20.935 17.792 19.756 16.358C20.029 15.958 20.262 15.56 20.452 15.169C22.171 14.94 23.012 14.047 23.02 12.448H23.019ZM19.659 14.501C19.432 15.016 19.115 15.552 18.717 16.095C18.575 16.288 18.59 16.554 18.753 16.73C20.126 18.217 19.651 18.93 19.048 19.532C18.418 20.16 17.727 20.61 16.236 19.237C16.061 19.075 15.796 19.061 15.602 19.201C15.061 19.596 14.525 19.911 14.007 20.138C13.84 20.211 13.725 20.37 13.71 20.553C13.571 22.168 12.931 22.495 11.944 22.5C10.936 22.473 10.335 22.196 10.21 20.6C10.195 20.414 10.079 20.252 9.908 20.179C9.387 19.957 8.867 19.653 8.32 19.25C8.231 19.185 8.127 19.153 8.024 19.153C7.902 19.153 7.781 19.197 7.686 19.285C6.183 20.668 5.475 20.204 4.879 19.609C4.284 19.015 3.819 18.31 5.202 16.812C5.365 16.635 5.38 16.368 5.237 16.175C4.837 15.634 4.521 15.1 4.3 14.587C4.227 14.417 4.066 14.301 3.881 14.286C2.294 14.16 1.978 13.531 1.983 12.557C1.988 11.573 2.316 10.935 3.929 10.796C4.111 10.78 4.27 10.667 4.344 10.5C4.571 9.98498 4.888 9.44898 5.286 8.90598C5.428 8.71298 5.413 8.44698 5.25 8.27098C3.877 6.78398 4.352 6.07098 4.955 5.46898C5.561 4.86498 6.276 4.38898 7.767 5.76398C7.943 5.92698 8.208 5.94198 8.401 5.79998C8.942 5.40498 9.478 5.08998 9.996 4.86298C10.163 4.78998 10.278 4.63098 10.293 4.44798C10.432 2.83298 11.072 2.50598 12.059 2.50098C13.049 2.47398 13.667 2.80498 13.793 4.40098C13.808 4.58698 13.924 4.74898 14.095 4.82198C14.616 5.04398 15.136 5.34798 15.683 5.75098C15.876 5.89298 16.141 5.87798 16.318 5.71598C17.822 4.33398 18.53 4.79798 19.125 5.39198C19.72 5.98598 20.185 6.69098 18.802 8.18898C18.639 8.36598 18.624 8.63298 18.767 8.82598C19.167 9.36698 19.483 9.90098 19.704 10.414C19.777 10.584 19.938 10.7 20.123 10.715C21.71 10.841 22.026 11.47 22.021 12.444C22.016 13.428 21.688 14.066 20.075 14.205C19.893 14.221 19.733 14.334 19.659 14.501Z" fill="#999999"/>
</svg>
