<svg width="16" height="16" viewBox="0 0 16 16" fill="none" xmlns="http://www.w3.org/2000/svg">
<g clip-path="url(#clip0_34_728)">
<path d="M10.6667 6.66667C11.7693 6.66667 12.6667 5.76933 12.6667 4.66667C12.6667 3.564 11.7693 2.66667 10.6667 2.66667C9.564 2.66667 8.66667 3.564 8.66667 4.66667C8.66667 4.9 8.70733 5.12467 8.78133 5.33267L6.22733 6.75133C5.86067 6.294 5.29733 6 4.66667 6C3.564 6 2.66667 6.89733 2.66667 8C2.66667 9.10267 3.564 10 4.66667 10C5.29733 10 5.86067 9.706 6.22733 9.24867L8.78067 10.6673C8.70667 10.876 8.666 11.1 8.666 11.3333C8.666 12.436 9.56333 13.3333 10.666 13.3333C11.7687 13.3333 12.666 12.436 12.666 11.3333C12.666 10.2307 11.7687 9.33333 10.666 9.33333C10.0353 9.33333 9.472 9.62733 9.10533 10.0847L6.552 8.666C6.626 8.45733 6.66667 8.23333 6.66667 8C6.66667 7.76667 6.626 7.54267 6.552 7.334L9.106 5.91533C9.47267 6.37267 10.036 6.66667 10.6667 6.66667ZM10.6667 10C11.402 10 12 10.598 12 11.3333C12 12.0687 11.402 12.6667 10.6667 12.6667C9.93133 12.6667 9.33333 12.0687 9.33333 11.3333C9.33333 10.4273 10.1727 10 10.6667 10ZM4.66667 9.33333C3.93133 9.33333 3.33333 8.73533 3.33333 8C3.33333 7.26467 3.93133 6.66667 4.66667 6.66667C5.402 6.66667 6 7.26467 6 8C6 8.73533 5.402 9.33333 4.66667 9.33333ZM10.6667 3.33333C11.402 3.33333 12 3.93133 12 4.66667C12 5.402 11.402 6 10.6667 6C9.91467 6 9.33333 5.33333 9.33333 4.66667C9.33333 3.93133 9.93133 3.33333 10.6667 3.33333ZM13 0H3C1.346 0 0 1.346 0 3V13C0 14.654 1.346 16 3 16H13C14.654 16 16 14.654 16 13V3C16 1.346 14.654 0 13 0ZM15.3333 13C15.3333 14.2867 14.2867 15.3333 13 15.3333H3C1.71333 15.3333 0.666667 14.2867 0.666667 13V3C0.666667 1.71333 1.71333 0.666667 3 0.666667H13C14.2867 0.666667 15.3333 1.71333 15.3333 3V13Z" fill="black"/>
</g>
<defs>
<clipPath id="clip0_34_728">
<rect width="16" height="16" fill="white"/>
</clipPath>
</defs>
</svg>
