<svg width="20" height="21" viewBox="0 0 20 21" fill="none" xmlns="http://www.w3.org/2000/svg">
<g clip-path="url(#clip0_42_1185)">
<path d="M19.4183 10.7637C19.0058 10.2995 18.4458 10.0445 17.8408 10.0445H0.833333V3.41032C0.833333 2.70866 1.0825 2.01032 1.59167 1.52866C2.53667 0.63449 3.86167 0.721157 4.71 1.42866L4.18917 4.41949C4.12417 4.78699 4.2 5.16366 4.40167 5.47866C4.625 5.82616 4.985 6.06699 5.39083 6.14032C5.4775 6.15699 5.56583 6.16366 5.65333 6.16366C5.97333 6.16366 6.28917 6.06032 6.54833 5.86699L9.40417 3.72532C10.0242 3.25949 10.1833 2.38366 9.75417 1.71366C9.49333 1.30782 9.04833 1.05199 8.56667 1.03116L5.355 0.88699C4.17667 -0.19301 2.2225 -0.333843 0.9025 1.05116C0.296667 1.68782 0 2.56116 0 3.43949V10.1978C0 10.3762 0.01 10.552 0.0308333 10.7287C0.1075 11.3878 0.3025 13.0553 0.3025 13.0553C0.534167 15.022 1.52417 16.7178 2.93833 17.8287C2.935 17.8395 2.51167 19.5462 2.51167 19.5462C2.45667 19.7703 2.59333 19.9953 2.81583 20.0503C2.84917 20.0587 2.88333 20.0628 2.91583 20.0628C3.10333 20.0628 3.27333 19.9362 3.32 19.7462L3.67083 18.3287C4.6275 18.892 5.725 19.2103 6.88417 19.2103H13.3458C14.4258 19.2103 15.4517 18.9337 16.36 18.4403L16.6783 19.727C16.7258 19.917 16.8958 20.0437 17.0825 20.0437C17.115 20.0437 17.1492 20.0395 17.1825 20.0312C17.4058 19.9762 17.5425 19.7503 17.4867 19.527L17.1017 17.9712C18.6167 16.8662 19.6858 15.1087 19.9275 13.0545L19.9808 12.5903C20.06 11.9212 19.8542 11.2545 19.4158 10.7628L19.4183 10.7637ZM9.06333 2.17949C9.2475 2.46782 9.1775 2.85366 8.905 3.05782L6.04917 5.19949C5.90083 5.30949 5.71917 5.35032 5.53917 5.32116C5.35833 5.28782 5.20417 5.18449 5.10417 5.02949C5.01583 4.89116 4.9825 4.72532 5.01083 4.56282L5.505 1.72782L8.53083 1.86199C8.74333 1.87199 8.93917 1.98449 9.065 2.17949H9.06333ZM19.155 12.4945L19.1017 12.9587C18.7375 16.0487 16.2642 18.3787 13.3467 18.3787H6.885C3.9675 18.3787 1.49333 16.0487 1.13 12.9587L0.885833 10.8787H17.8417C18.205 10.8787 18.5442 11.0353 18.7967 11.3178C19.0767 11.6328 19.2075 12.062 19.1567 12.4945H19.155Z" fill="#1A2649"/>
</g>
<defs>
<clipPath id="clip0_42_1185">
<rect width="20" height="20" fill="white" transform="translate(0 0.0446777)"/>
</clipPath>
</defs>
</svg>
