<svg width="20" height="20" viewBox="0 0 20 20" fill="none" xmlns="http://www.w3.org/2000/svg">
<path d="M1.24999 5.18921H3.27083C3.43666 7.19837 4.82166 7.44254 5.88083 7.44254C6.93999 7.44254 8.32416 7.19837 8.49083 5.18921H18.7508C18.9808 5.18921 19.1675 5.00254 19.1675 4.77254C19.1675 4.54254 18.9808 4.35587 18.7508 4.35587H8.48999C8.32416 2.34671 6.93916 2.10254 5.87999 2.10254C4.82083 2.10254 3.43666 2.34671 3.26999 4.35587H1.24999C1.01999 4.35587 0.833328 4.54254 0.833328 4.77254C0.833328 5.00254 1.01999 5.18921 1.24999 5.18921ZM5.87999 2.93587C7.015 2.93587 7.67249 3.23587 7.67249 4.77254C7.67249 6.30921 7.015 6.60921 5.87999 6.60921C4.745 6.60921 4.0875 6.30921 4.0875 4.77254C4.0875 3.23587 4.745 2.93587 5.87999 2.93587Z" fill="#4F4B5C"/>
<path d="M18.75 9.58329H16.7292C16.5633 7.57412 15.1783 7.32996 14.1192 7.32996C13.06 7.32996 11.6758 7.57412 11.5092 9.58329H1.24999C1.01999 9.58329 0.833328 9.76996 0.833328 9.99996C0.833328 10.23 1.01999 10.4166 1.24999 10.4166H11.51C11.6758 12.4258 13.0608 12.67 14.12 12.67C15.1792 12.67 16.5633 12.4258 16.73 10.4166H18.7508C18.9808 10.4166 19.1675 10.23 19.1675 9.99996C19.1675 9.76996 18.98 9.58329 18.75 9.58329ZM14.12 11.8366C12.985 11.8366 12.3275 11.5366 12.3275 9.99996C12.3275 8.46329 12.985 8.16329 14.12 8.16329C15.255 8.16329 15.9125 8.46329 15.9125 9.99996C15.9125 11.5366 15.255 11.8366 14.12 11.8366Z" fill="#4F4B5C"/>
<path d="M18.75 14.8108H8.48999C8.32416 12.8017 6.93916 12.5575 5.87999 12.5575C4.82083 12.5575 3.43666 12.8017 3.26999 14.8108H1.24999C1.01999 14.8108 0.833328 14.9975 0.833328 15.2275C0.833328 15.4575 1.01999 15.6442 1.24999 15.6442H3.27083C3.43666 17.6525 4.82249 17.8967 5.88083 17.8967C6.93916 17.8967 8.32416 17.6525 8.49083 15.6442H18.7508C18.9808 15.6442 19.1675 15.4575 19.1675 15.2275C19.1675 14.9975 18.98 14.8108 18.75 14.8108ZM5.87999 17.0633C4.745 17.0633 4.0875 16.7633 4.0875 15.2275C4.0875 13.6917 4.745 13.3908 5.87999 13.3908C7.015 13.3908 7.67249 13.6908 7.67249 15.2275C7.67249 16.7642 7.015 17.0633 5.87999 17.0633Z" fill="#4F4B5C"/>
</svg>
