<svg width="20" height="20" viewBox="0 0 20 20" fill="none" xmlns="http://www.w3.org/2000/svg">
<path d="M16.25 1.66667H15V0.416667C15 0.186667 14.8133 0 14.5833 0C14.3533 0 14.1667 0.186667 14.1667 0.416667V1.66667H5.83333V0.416667C5.83333 0.186667 5.64667 0 5.41667 0C5.18667 0 5 0.186667 5 0.416667V1.66667H3.75C1.6825 1.66667 0 3.34917 0 5.41667V16.25C0 18.3175 1.6825 20 3.75 20H16.25C18.3175 20 20 18.3175 20 16.25V5.41667C20 3.34917 18.3175 1.66667 16.25 1.66667ZM3.75 2.5H16.25C17.8583 2.5 19.1667 3.80833 19.1667 5.41667V6.66667H0.833333V5.41667C0.833333 3.80833 2.14167 2.5 3.75 2.5ZM16.25 19.1667H3.75C2.14167 19.1667 0.833333 17.8583 0.833333 16.25V7.5H19.1667V16.25C19.1667 17.8583 17.8583 19.1667 16.25 19.1667ZM13.1417 11.6767H11.5217L11.0883 10.0142C10.96 9.525 10.5158 9.17583 9.9925 9.16583C9.48417 9.17583 9.04 9.52417 8.9125 10.0142L8.47917 11.6758H6.85917C6.21167 11.6758 5.81083 12.195 5.81083 12.6767C5.81083 13.1225 6.08083 13.5483 6.51417 13.7892L7.555 14.3675L7.0775 15.6692C6.8975 16.1617 7.0575 16.705 7.47667 17.0208C7.68667 17.1792 7.9375 17.2575 8.18833 17.2575C8.44417 17.2575 8.69917 17.175 8.91167 17.0117L10.0017 16.1692L11.0908 17.0117C11.5108 17.3367 12.1008 17.34 12.5258 17.0208C12.945 16.705 13.105 16.1617 12.925 15.6692L12.4475 14.3675L13.4875 13.7892C13.9217 13.5483 14.1917 13.1217 14.1917 12.6767C14.1917 12.195 13.7908 11.6758 13.1433 11.6758L13.1417 11.6767ZM13.0808 13.0617L11.4175 13.9867L12.14 15.9567C12.1925 16.1 12.1442 16.2642 12.0225 16.3558C11.8975 16.4492 11.7233 16.4483 11.5992 16.3533L10 15.1167L8.40083 16.3533C8.27667 16.4492 8.1025 16.4508 7.9775 16.3558C7.85583 16.2642 7.8075 16.1 7.85917 15.9567L8.5825 13.9858L6.91917 13.0608C6.7825 12.985 6.64417 12.8358 6.64417 12.6767C6.64417 12.6317 6.695 12.5092 6.85917 12.5092H9.1225L9.71833 10.2242C9.7525 10.0942 9.87167 10.0008 9.9925 9.99833C10.1292 10.0008 10.2483 10.0933 10.2817 10.2233L10.8775 12.5083H13.1408C13.305 12.5083 13.3558 12.6308 13.3558 12.6758C13.3558 12.8358 13.2175 12.9842 13.08 13.06L13.0808 13.0617Z" fill="#1A2649"/>
</svg>
