<svg width="15" height="21" viewBox="0 0 15 21" fill="none" xmlns="http://www.w3.org/2000/svg">
<path d="M13.3333 8.37218V3.87801H14.5833C14.8133 3.87801 15 3.69134 15 3.46134C15 3.23134 14.8133 3.04468 14.5833 3.04468H13.3033C13.1008 1.63301 11.8833 0.544678 10.4167 0.544678H4.58333C2.975 0.544678 1.66667 1.85301 1.66667 3.46134V8.37218C0.691667 8.90551 0 9.77218 0 10.5447C0 12.4997 1.815 15.608 5.80083 16.2472C5.57333 17.1913 4.2275 17.2113 4.16667 17.2113C3.2475 17.2113 2.5 17.9588 2.5 18.878C2.5 19.7972 3.2475 20.5447 4.16667 20.5447H10.8333C11.7525 20.5447 12.5 19.7972 12.5 18.878C12.5 17.9588 11.7525 17.2113 10.8333 17.2113C10.7708 17.2113 9.42417 17.1997 9.19917 16.2472C13.1858 15.6088 15 12.8205 15 10.5447C15 9.77218 14.3083 8.90634 13.3333 8.37218ZM2.5 3.46134C2.5 2.31218 3.43417 1.37801 4.58333 1.37801H10.4167C11.5658 1.37801 12.5 2.31218 12.5 3.46134V8.04468H2.5V3.46134ZM10.8333 18.0447C11.2933 18.0447 11.6667 18.418 11.6667 18.878C11.6667 19.338 11.2933 19.7113 10.8333 19.7113H4.16667C3.70667 19.7113 3.33333 19.338 3.33333 18.878C3.33333 18.418 3.70667 18.0447 4.16667 18.0447C4.96 18.0447 6.40167 17.678 6.63417 16.3447C6.91333 16.3663 7.20167 16.378 7.5 16.378C7.79833 16.378 8.08667 16.3663 8.36583 16.3447C8.59833 17.678 10.04 18.0447 10.8333 18.0447ZM7.5 15.5447C3.88333 15.5447 1.83167 13.7772 1.12083 12.0363C2.34167 12.6897 4.525 13.0447 7.5 13.0447C10.2875 13.0447 12.4983 12.8813 13.7783 12.2647C12.9858 13.9288 10.9583 15.5447 7.5 15.5447ZM7.5 12.2113C2.60917 12.2113 0.833333 11.2147 0.833333 10.5447C0.833333 10.0988 1.4925 9.26051 2.57 8.87801H12.43C13.5075 9.26051 14.1667 10.0988 14.1667 10.5447C14.1667 11.713 12.1725 12.2113 7.5 12.2113Z" fill="#1A2649"/>
</svg>
