<svg width="16" height="16" viewBox="0 0 16 16" fill="none" xmlns="http://www.w3.org/2000/svg">
<path d="M15.3852 1.57439C15.0547 0.643531 14.0702 0.171087 13.1905 0.517819C12.8675 0.646982 12.5881 0.877702 12.3883 1.18006C12.1886 1.48241 12.0778 1.84245 12.0703 2.21347C12.0638 2.58927 12.1639 2.95825 12.3571 3.27116C12.5504 3.58407 12.8277 3.82601 13.1519 3.96468C13.4141 4.0746 13.5291 4.25703 13.5259 4.54938C13.5161 5.34985 13.5193 6.13277 13.5259 6.79291C13.5259 6.99346 13.4786 7.14374 13.3777 7.25308C13.2768 7.36242 13.1329 7.41621 12.9462 7.41504C11.4375 7.40744 10.0638 7.40802 8.74666 7.41504C8.64517 7.41504 8.49917 7.40335 8.389 7.28465C8.26797 7.15309 8.27015 6.97475 8.27123 6.88939C8.27883 6.12108 8.27883 5.32705 8.27123 4.5295C8.26798 4.24534 8.37978 4.07109 8.62997 3.96468C9.44948 3.61911 9.8994 2.64733 9.65517 1.75272C9.42017 0.891447 8.71246 0.349422 7.89404 0.399707C7.13423 0.448238 6.44172 1.092 6.32286 1.86557C6.17741 2.80929 6.59422 3.63373 7.38171 3.96584C7.69812 4.09916 7.73665 4.34064 7.73448 4.53594C7.72688 5.49135 7.72742 6.21931 7.73448 6.89523C7.73448 7.01218 7.72417 7.16595 7.61617 7.28348C7.4946 7.41562 7.32418 7.41504 7.252 7.41445C5.73238 7.40685 4.33433 7.40685 2.96993 7.41445C2.86627 7.41445 2.71213 7.40159 2.59925 7.2788C2.48636 7.15601 2.47714 7.00282 2.47714 6.87711C2.48636 6.09711 2.48636 5.31301 2.47714 4.54763C2.47171 4.17517 2.67632 4.04069 2.85433 3.96292C3.62499 3.63665 4.05157 2.76895 3.88984 1.85271C3.74602 1.03412 3.03505 0.407894 2.2378 0.399123H2.22043C1.82665 0.398863 1.44472 0.544237 1.13849 0.810944C0.832254 1.07765 0.620276 1.44952 0.53799 1.8644C0.45387 2.28683 0.510445 2.72768 0.697798 3.10967C0.88515 3.49166 1.19132 3.79042 1.56265 3.95357C1.82533 4.067 1.94255 4.25469 1.94255 4.56166C1.93713 6.56897 1.93713 8.68152 1.94255 10.8408C1.94255 11.0636 1.89859 11.3086 1.56862 11.4525C1.19247 11.6149 0.882474 11.9166 0.694432 12.3034C0.50639 12.6901 0.452646 13.1364 0.542875 13.5621C0.629337 13.9731 0.842995 14.3402 1.14874 14.6031C1.45449 14.866 1.83414 15.009 2.22531 15.0086H2.2595C3.04591 14.9917 3.74765 14.369 3.89201 13.5592C4.05483 12.6412 3.63205 11.7729 2.86084 11.4478C2.59436 11.3349 2.47659 11.1472 2.48094 10.8391C2.48745 10.2053 2.49342 9.37089 2.48094 8.54002C2.48094 8.42308 2.48962 8.25643 2.60522 8.13072C2.7333 7.99098 2.9124 7.99215 2.99815 7.99215C4.42225 7.99975 5.84472 7.99975 7.22487 7.99215H7.2444C7.34046 7.99215 7.49948 7.99975 7.61779 8.12897C7.73611 8.25819 7.74262 8.42132 7.74045 8.53826C7.72905 9.20893 7.72851 9.92695 7.74045 10.866C7.74371 11.1583 7.62811 11.3378 7.36651 11.4507C6.96327 11.6206 6.63527 11.9497 6.44925 12.3709C6.26323 12.7921 6.23317 13.2739 6.36519 13.7182C6.61539 14.5409 7.36326 15.0817 8.14532 15.0046C8.91273 14.9285 9.57376 14.2936 9.68339 13.527C9.81799 12.5868 9.40498 11.7688 8.63323 11.4431C8.46173 11.3706 8.26526 11.242 8.2696 10.8818C8.27883 9.93163 8.27829 9.20425 8.2696 8.52306C8.2696 8.4108 8.27883 8.24766 8.39226 8.12488C8.51763 7.98922 8.68913 7.99215 8.77216 7.99273C9.29263 7.99975 9.82396 7.99799 10.3374 7.99741H10.9105H12.9186C13.6784 7.99741 14.0675 7.57642 14.0691 6.74789V6.35087C14.0691 5.76616 14.0724 5.15865 14.0653 4.56342C14.0615 4.25937 14.1798 4.07226 14.4479 3.9559C15.2984 3.58461 15.7195 2.51694 15.3852 1.57439ZM3.06056 12.2804C3.16793 12.3978 3.25248 12.537 3.30923 12.69C3.36599 12.8431 3.39381 13.0067 3.39108 13.1715C3.38714 13.503 3.26319 13.8198 3.04563 14.0543C2.82808 14.2888 2.53412 14.4225 2.2264 14.4269H2.215C2.06229 14.4281 1.91089 14.3966 1.76956 14.3342C1.62823 14.2719 1.49979 14.18 1.39169 14.0638C1.28063 13.9445 1.19294 13.8024 1.13383 13.6459C1.07472 13.4894 1.0454 13.3217 1.04761 13.1528C1.04584 12.9885 1.07468 12.8255 1.13243 12.6735C1.19018 12.5215 1.27566 12.3835 1.38381 12.2677C1.49195 12.1519 1.62057 12.0606 1.76204 11.9993C1.90351 11.938 2.05495 11.908 2.2074 11.9109H2.2112C2.36847 11.9085 2.5246 11.94 2.67044 12.0034C2.81628 12.0669 2.94891 12.161 3.06056 12.2804ZM2.21229 3.50217H2.20686C2.0543 3.5039 1.90293 3.47313 1.76145 3.41161C1.61998 3.3501 1.49118 3.25907 1.38247 3.14374C1.27546 3.02704 1.19094 2.8887 1.13375 2.73668C1.07656 2.58465 1.04784 2.42194 1.04924 2.25791C1.0469 2.08929 1.07601 1.92188 1.13483 1.7656C1.19366 1.60932 1.281 1.46735 1.39169 1.3481C1.50146 1.23079 1.63191 1.13833 1.77536 1.07617C1.9188 1.01401 2.07235 0.983409 2.22694 0.98617C2.53456 0.991177 2.82821 1.12538 3.04535 1.36019C3.26248 1.595 3.38595 1.91186 3.38945 2.24329C3.39234 2.40821 3.36453 2.57208 3.30767 2.72523C3.25081 2.87837 3.16605 3.0177 3.05839 3.13497C2.94698 3.25353 2.81481 3.34705 2.66956 3.41009C2.5243 3.47313 2.36887 3.50443 2.21229 3.50217ZM8.85086 12.2862C8.95786 12.4024 9.04222 12.5405 9.09898 12.6923C9.15574 12.8442 9.18376 13.0067 9.18138 13.1703C9.17619 13.5022 9.05134 13.8188 8.83324 14.0533C8.61515 14.2877 8.32094 14.4215 8.0129 14.4263H8.0015C7.68937 14.4235 7.39076 14.2887 7.17005 14.0509C7.05995 13.9337 6.97244 13.7943 6.91255 13.6405C6.85266 13.4868 6.82157 13.3218 6.82108 13.1551C6.82143 12.9905 6.85201 12.8276 6.91105 12.6758C6.97009 12.524 7.05643 12.3863 7.16509 12.2706C7.27375 12.1548 7.40259 12.0634 7.54418 12.0016C7.68578 11.9398 7.83733 11.9087 7.9901 11.9103H8.00313C8.16049 11.9094 8.31644 11.9422 8.46196 12.0068C8.60747 12.0713 8.73966 12.1663 8.85086 12.2862ZM8.0129 3.50217H8.00584C7.84814 3.50384 7.6917 3.47184 7.54554 3.40802C7.39939 3.34419 7.26642 3.2498 7.15431 3.1303C7.04669 3.01451 6.96166 2.8767 6.90425 2.72496C6.84683 2.57323 6.81818 2.41065 6.81999 2.2468C6.82363 1.91468 6.94733 1.59718 7.16482 1.36178C7.3823 1.12638 7.67643 0.991627 7.98467 0.98617C8.14084 0.984982 8.29567 1.01713 8.44024 1.08076C8.58481 1.14438 8.71625 1.23823 8.82698 1.35687C8.93833 1.47324 9.02691 1.61245 9.0875 1.7663C9.14808 1.92015 9.17945 2.08552 9.17975 2.25265C9.18033 2.41756 9.15049 2.58094 9.09197 2.73332C9.03345 2.8857 8.94741 3.02404 8.83885 3.14029C8.73029 3.25654 8.60137 3.3484 8.45958 3.41052C8.31779 3.47265 8.16596 3.5038 8.0129 3.50217ZM13.7972 3.50217H13.7907C13.6344 3.50395 13.4792 3.47243 13.3342 3.40941C13.1892 3.3464 13.0572 3.25313 12.9457 3.13497C12.8379 3.01827 12.7528 2.87952 12.6955 2.7269C12.6382 2.57427 12.6098 2.41085 12.6119 2.24622C12.6146 1.91467 12.7373 1.59735 12.9539 1.36186C13.1706 1.12638 13.464 0.991366 13.7717 0.985585C13.9263 0.982459 14.08 1.01266 14.2236 1.07441C14.3672 1.13617 14.4979 1.22823 14.6081 1.34518C14.719 1.46418 14.8068 1.60585 14.8662 1.76188C14.9257 1.91791 14.9556 2.08516 14.9543 2.25382C14.9569 2.41822 14.9288 2.5815 14.8716 2.73397C14.8145 2.88644 14.7295 3.025 14.6218 3.14143C14.514 3.25786 14.3856 3.34978 14.2443 3.41175C14.1029 3.47372 13.9515 3.50446 13.7989 3.50217H13.7972Z" fill="#1A2649"/>
</svg>
