<svg width="14" height="12" viewBox="0 0 14 12" fill="none" xmlns="http://www.w3.org/2000/svg">
<path d="M14.0001 6.00006C13.9953 5.47396 13.7833 4.97096 13.4101 4.60007L9.12012 0.30007C8.93276 0.113819 8.67931 0.00927734 8.41512 0.00927734C8.15094 0.00927734 7.89748 0.113819 7.71012 0.30007C7.61639 0.393033 7.542 0.503634 7.49123 0.625493C7.44046 0.747352 7.41432 0.878057 7.41432 1.01007C7.41432 1.14208 7.44046 1.27279 7.49123 1.39465C7.542 1.5165 7.61639 1.62711 7.71012 1.72007L11.0001 5.00006H1.00012C0.734906 5.00006 0.480552 5.10542 0.293015 5.29296C0.105479 5.48049 0.00012207 5.73485 0.00012207 6.00006C0.00012207 6.26528 0.105479 6.51963 0.293015 6.70717C0.480552 6.89471 0.734906 7.00006 1.00012 7.00006H11.0001L7.71012 10.2901C7.52182 10.477 7.4155 10.7312 7.41457 10.9965C7.41363 11.2619 7.51814 11.5168 7.70512 11.7051C7.8921 11.8934 8.14622 11.9997 8.41159 12.0006C8.67695 12.0016 8.93182 11.897 9.12012 11.7101L13.4101 7.41006C13.7857 7.03671 13.9979 6.52964 14.0001 6.00006Z" fill="#1A2649"/>
</svg>
