<svg width="28" height="19" viewBox="0 0 28 19" fill="none" xmlns="http://www.w3.org/2000/svg">
<path d="M26.447 18.4608H1.55303C0.695172 18.4608 0 17.8378 0 17.0689V1.68093C0 0.912094 0.695172 0.289062 1.55303 0.289062H26.447C27.3048 0.289062 28 0.912094 28 1.68093V17.0689C28 17.8378 27.3048 18.4608 26.447 18.4608Z" fill="#F0C41B"/>
<path d="M28 2.45215H0V5.91343H28V2.45215Z" fill="#806F5E"/>
<path d="M7.2414 8.94223H2.89658C2.63009 8.94223 2.41382 8.74839 2.41382 8.50956C2.41382 8.27074 2.63009 8.0769 2.89658 8.0769H7.2414C7.50789 8.0769 7.72416 8.27074 7.72416 8.50956C7.72416 8.74839 7.50789 8.94223 7.2414 8.94223Z" fill="#F9EAB0"/>
<path d="M13.5175 8.94223H9.1727C8.90622 8.94223 8.68994 8.74839 8.68994 8.50956C8.68994 8.27074 8.90622 8.0769 9.1727 8.0769H13.5175C13.784 8.0769 14.0003 8.27074 14.0003 8.50956C14.0003 8.74839 13.784 8.94223 13.5175 8.94223Z" fill="#F9EAB0"/>
<path d="M3.37934 11.1058H2.89658C2.63009 11.1058 2.41382 10.912 2.41382 10.6731C2.41382 10.4343 2.63009 10.2405 2.89658 10.2405H3.37934C3.64582 10.2405 3.86209 10.4343 3.86209 10.6731C3.86209 10.912 3.64582 11.1058 3.37934 11.1058Z" fill="#F9EAB0"/>
<path d="M6.27616 11.1058H5.31064C5.04416 11.1058 4.82788 10.912 4.82788 10.6731C4.82788 10.4343 5.04416 10.2405 5.31064 10.2405H6.27616C6.54264 10.2405 6.75892 10.4343 6.75892 10.6731C6.75892 10.912 6.54264 11.1058 6.27616 11.1058Z" fill="#F9EAB0"/>
<path d="M8.68964 11.1058H8.20688C7.9404 11.1058 7.72412 10.912 7.72412 10.6731C7.72412 10.4343 7.9404 10.2405 8.20688 10.2405H8.68964C8.95612 10.2405 9.1724 10.4343 9.1724 10.6731C9.1724 10.912 8.95612 11.1058 8.68964 11.1058Z" fill="#F9EAB0"/>
<path d="M11.5862 11.1058H10.6207C10.3542 11.1058 10.1379 10.912 10.1379 10.6731C10.1379 10.4343 10.3542 10.2405 10.6207 10.2405H11.5862C11.8527 10.2405 12.069 10.4343 12.069 10.6731C12.069 10.912 11.8527 11.1058 11.5862 11.1058Z" fill="#F9EAB0"/>
<path d="M13.5177 11.1055C13.3922 11.1055 13.2666 11.0579 13.1749 10.98C13.088 10.8978 13.0349 10.7897 13.0349 10.6729C13.0349 10.5604 13.088 10.4479 13.1749 10.3657C13.3535 10.2056 13.677 10.2056 13.8604 10.3657C13.9473 10.4479 14.0004 10.5604 14.0004 10.6729C14.0004 10.7853 13.9473 10.8978 13.8604 10.98C13.7687 11.0579 13.6432 11.1055 13.5177 11.1055Z" fill="#F9EAB0"/>
<path d="M22.2069 13.7012C22.2069 15.135 20.9102 16.2972 19.3104 16.2972C17.7105 16.2972 16.4138 15.135 16.4138 13.7012C16.4138 12.2674 17.7105 11.1052 19.3104 11.1052C20.9102 11.1052 22.2069 12.2674 22.2069 13.7012Z" fill="#DB2215"/>
<path d="M25.5863 13.7012C25.5863 15.135 24.2896 16.2972 22.6898 16.2972C21.0899 16.2972 19.7932 15.135 19.7932 13.7012C19.7932 12.2674 21.0899 11.1052 22.6898 11.1052C24.2896 11.1052 25.5863 12.2674 25.5863 13.7012Z" fill="#245EA9"/>
</svg>
