<svg width="20" height="19" viewBox="0 0 20 19" fill="none" xmlns="http://www.w3.org/2000/svg">
<path d="M0.2025 7.08123L8.79417 12.2362C9.16667 12.4596 9.58333 12.5704 10.0008 12.5704C10.4183 12.5704 10.835 12.4587 11.2075 12.2362L19.7992 7.08123C19.9242 7.00623 20.0017 6.87039 20.0017 6.72373C20.0017 6.57706 19.925 6.44206 19.7992 6.36623L11.2067 1.21206C10.4617 0.766227 9.53833 0.766227 8.79333 1.21206L0.2025 6.36706C0.0775 6.44206 0 6.57789 0 6.72456C0 6.87123 0.0766667 7.00539 0.2025 7.08123ZM10.7775 11.5212C10.2983 11.8096 9.70167 11.8096 9.2225 11.5212L6.01833 9.59873L10 7.20956L13.9817 9.59873L10.7775 11.5212ZM14.7917 9.11289L10.81 6.72373L14.7917 4.33456L18.7733 6.72373L14.7917 9.11289ZM9.2225 1.92623C9.70167 1.63873 10.2983 1.63873 10.7775 1.92623L13.9817 3.84873L10 6.23789L6.01833 3.84873L9.2225 1.92623ZM5.20833 4.33456L9.19 6.72373L5.20833 9.11289L1.22667 6.72373L5.20833 4.33456ZM19.9408 9.49623C20.0592 9.69373 19.995 9.94956 19.7983 10.0679L10.215 15.8179C10.1492 15.8579 10.075 15.8771 10.0008 15.8771C9.92667 15.8771 9.8525 15.8579 9.78667 15.8179L0.2025 10.0687C0.005 9.95039 -0.0583333 9.69456 0.06 9.49706C0.178333 9.30039 0.434167 9.23623 0.631667 9.35456L10.0008 14.9762L19.37 9.35456C19.5675 9.23623 19.8233 9.30039 19.9417 9.49706L19.9408 9.49623ZM19.9408 12.4129C20.0592 12.6096 19.995 12.8662 19.7983 12.9846L10.215 18.7346C10.1492 18.7746 10.075 18.7937 10.0008 18.7937C9.92667 18.7937 9.8525 18.7746 9.78667 18.7346L0.2025 12.9846C0.005 12.8662 -0.0583333 12.6104 0.06 12.4129C0.178333 12.2154 0.434167 12.1496 0.631667 12.2696L10.0008 17.8912L19.37 12.2696C19.5675 12.1487 19.8225 12.2162 19.9408 12.4129Z" fill="#1A2649"/>
</svg>
